%TF.GenerationSoftware,KiCad,Pcbnew,8.0.4*%
%TF.CreationDate,2024-09-02T19:36:39+02:00*%
%TF.ProjectId,Zoka-MainBoard,5a6f6b61-2d4d-4616-996e-426f6172642e,rev?*%
%TF.SameCoordinates,Original*%
%TF.FileFunction,Legend,Bot*%
%TF.FilePolarity,Positive*%
%FSLAX46Y46*%
G04 Gerber Fmt 4.6, Leading zero omitted, Abs format (unit mm)*
G04 Created by KiCad (PCBNEW 8.0.4) date 2024-09-02 19:36:39*
%MOMM*%
%LPD*%
G01*
G04 APERTURE LIST*
%ADD10C,0.120000*%
G04 APERTURE END LIST*
D10*
%TO.C,U201*%
X147913267Y-99127951D02*
X148975785Y-99412652D01*
X153008534Y-80305338D02*
X152749715Y-81271264D01*
X153008534Y-80305338D02*
X153974460Y-80564157D01*
X153114600Y-80489050D02*
X154370304Y-80825515D01*
X152894604Y-81310087D02*
X153114600Y-80489050D01*
X148145275Y-99034826D02*
X148274684Y-98551863D01*
X170501265Y-85147793D02*
X169197265Y-84798387D01*
X170307151Y-85872237D02*
X170501265Y-85147793D01*
X165531939Y-103693568D02*
X148145275Y-99034826D01*
X165531939Y-103693568D02*
X165661349Y-103210606D01*
X170684977Y-85041727D02*
X169719051Y-84782908D01*
X170452040Y-85911060D02*
X170684977Y-85041727D01*
X165806238Y-103249428D02*
X165638005Y-103877280D01*
X165638005Y-103877280D02*
X164672080Y-103618461D01*
%TO.C,JP401*%
X157843827Y-112815871D02*
X157243827Y-112815871D01*
X156543827Y-113515871D02*
X156543827Y-114915871D01*
X158543827Y-114915871D02*
X158543827Y-113515871D01*
X157243827Y-115615871D02*
X157843827Y-115615871D01*
X157843827Y-112815871D02*
G75*
G02*
X158543827Y-113515871I1J-699999D01*
G01*
X156543827Y-113515871D02*
G75*
G02*
X157243827Y-112815871I699999J1D01*
G01*
X158543827Y-114915871D02*
G75*
G02*
X157843827Y-115615871I-700000J0D01*
G01*
X157243827Y-115615871D02*
G75*
G02*
X156543827Y-114915871I0J700000D01*
G01*
%TO.C,JP402*%
X155343827Y-112817658D02*
X154743827Y-112817658D01*
X154043827Y-113517658D02*
X154043827Y-114917658D01*
X156043827Y-114917658D02*
X156043827Y-113517658D01*
X154743827Y-115617658D02*
X155343827Y-115617658D01*
X155343827Y-112817658D02*
G75*
G02*
X156043827Y-113517658I1J-699999D01*
G01*
X154043827Y-113517658D02*
G75*
G02*
X154743827Y-112817658I699999J1D01*
G01*
X156043827Y-114917658D02*
G75*
G02*
X155343827Y-115617658I-700000J0D01*
G01*
X154743827Y-115617658D02*
G75*
G02*
X154043827Y-114917658I0J700000D01*
G01*
%TO.C,JP403*%
X152843827Y-112815870D02*
X152243827Y-112815870D01*
X151543827Y-113515870D02*
X151543827Y-114915870D01*
X153543827Y-114915870D02*
X153543827Y-113515870D01*
X152243827Y-115615870D02*
X152843827Y-115615870D01*
X152843827Y-112815870D02*
G75*
G02*
X153543827Y-113515870I1J-699999D01*
G01*
X151543827Y-113515870D02*
G75*
G02*
X152243827Y-112815870I699999J1D01*
G01*
X153543827Y-114915870D02*
G75*
G02*
X152843827Y-115615870I-700000J0D01*
G01*
X152243827Y-115615870D02*
G75*
G02*
X151543827Y-114915870I0J700000D01*
G01*
%TD*%
M02*
