%TF.GenerationSoftware,KiCad,Pcbnew,8.0.4*%
%TF.CreationDate,2024-09-02T19:36:39+02:00*%
%TF.ProjectId,Zoka-MainBoard,5a6f6b61-2d4d-4616-996e-426f6172642e,rev?*%
%TF.SameCoordinates,Original*%
%TF.FileFunction,Other,User*%
%FSLAX46Y46*%
G04 Gerber Fmt 4.6, Leading zero omitted, Abs format (unit mm)*
G04 Created by KiCad (PCBNEW 8.0.4) date 2024-09-02 19:36:39*
%MOMM*%
%LPD*%
G01*
G04 APERTURE LIST*
%ADD10C,0.050000*%
%ADD11C,0.120000*%
G04 APERTURE END LIST*
D10*
%TO.C,TP202*%
X172012983Y-83193460D02*
G75*
G02*
X170012983Y-83193460I-1000000J0D01*
G01*
X170012983Y-83193460D02*
G75*
G02*
X172012983Y-83193460I1000000J0D01*
G01*
D11*
%TO.C,U201*%
X152548915Y-79509254D02*
X171481061Y-84582107D01*
X147243124Y-99310733D02*
X152548915Y-79509254D01*
X166175271Y-104383587D02*
X147243124Y-99310733D01*
X166175271Y-104383587D02*
X171481061Y-84582107D01*
D10*
%TO.C,JP401*%
X156293827Y-112565871D02*
X158793827Y-112565871D01*
X156293827Y-112565871D02*
X156293827Y-115865871D01*
X158793827Y-115865871D02*
X158793827Y-112565871D01*
X158793827Y-115865871D02*
X156293827Y-115865871D01*
%TO.C,JP402*%
X153793827Y-112567658D02*
X156293827Y-112567658D01*
X153793827Y-112567658D02*
X153793827Y-115867658D01*
X156293827Y-115867658D02*
X156293827Y-112567658D01*
X156293827Y-115867658D02*
X153793827Y-115867658D01*
%TO.C,J504*%
X183695395Y-44236948D02*
X180282414Y-39060892D01*
X188203574Y-41264352D02*
X183695395Y-44236948D01*
X188203574Y-41264352D02*
X184790593Y-36088296D01*
X184790593Y-36088296D02*
X180282414Y-39060892D01*
%TO.C,TP201*%
X148637987Y-100943458D02*
G75*
G02*
X146637987Y-100943458I-1000000J0D01*
G01*
X146637987Y-100943458D02*
G75*
G02*
X148637987Y-100943458I1000000J0D01*
G01*
%TO.C,J501*%
X175945681Y-77417866D02*
X172696968Y-82698573D01*
X171346356Y-74588343D02*
X175945681Y-77417866D01*
X171346356Y-74588343D02*
X168097643Y-79869050D01*
X168097643Y-79869050D02*
X172696968Y-82698573D01*
%TO.C,JP403*%
X151293827Y-112565870D02*
X153793827Y-112565870D01*
X151293827Y-112565870D02*
X151293827Y-115865870D01*
X153793827Y-115865870D02*
X153793827Y-112565870D01*
X153793827Y-115865870D02*
X151293827Y-115865870D01*
%TD*%
M02*
