%TF.GenerationSoftware,KiCad,Pcbnew,8.0.4*%
%TF.CreationDate,2024-09-02T19:36:39+02:00*%
%TF.ProjectId,Zoka-MainBoard,5a6f6b61-2d4d-4616-996e-426f6172642e,rev?*%
%TF.SameCoordinates,Original*%
%TF.FileFunction,Soldermask,Bot*%
%TF.FilePolarity,Negative*%
%FSLAX46Y46*%
G04 Gerber Fmt 4.6, Leading zero omitted, Abs format (unit mm)*
G04 Created by KiCad (PCBNEW 8.0.4) date 2024-09-02 19:36:39*
%MOMM*%
%LPD*%
G01*
G04 APERTURE LIST*
G04 Aperture macros list*
%AMRoundRect*
0 Rectangle with rounded corners*
0 $1 Rounding radius*
0 $2 $3 $4 $5 $6 $7 $8 $9 X,Y pos of 4 corners*
0 Add a 4 corners polygon primitive as box body*
4,1,4,$2,$3,$4,$5,$6,$7,$8,$9,$2,$3,0*
0 Add four circle primitives for the rounded corners*
1,1,$1+$1,$2,$3*
1,1,$1+$1,$4,$5*
1,1,$1+$1,$6,$7*
1,1,$1+$1,$8,$9*
0 Add four rect primitives between the rounded corners*
20,1,$1+$1,$2,$3,$4,$5,0*
20,1,$1+$1,$4,$5,$6,$7,0*
20,1,$1+$1,$6,$7,$8,$9,0*
20,1,$1+$1,$8,$9,$2,$3,0*%
%AMHorizOval*
0 Thick line with rounded ends*
0 $1 width*
0 $2 $3 position (X,Y) of the first rounded end (center of the circle)*
0 $4 $5 position (X,Y) of the second rounded end (center of the circle)*
0 Add line between two ends*
20,1,$1,$2,$3,$4,$5,0*
0 Add two circle primitives to create the rounded ends*
1,1,$1,$2,$3*
1,1,$1,$4,$5*%
%AMRotRect*
0 Rectangle, with rotation*
0 The origin of the aperture is its center*
0 $1 length*
0 $2 width*
0 $3 Rotation angle, in degrees counterclockwise*
0 Add horizontal line*
21,1,$1,$2,0,0,$3*%
%AMFreePoly0*
4,1,19,0.500000,-0.750000,0.000000,-0.750000,0.000000,-0.744911,-0.071157,-0.744911,-0.207708,-0.704816,-0.327430,-0.627875,-0.420627,-0.520320,-0.479746,-0.390866,-0.500000,-0.250000,-0.500000,0.250000,-0.479746,0.390866,-0.420627,0.520320,-0.327430,0.627875,-0.207708,0.704816,-0.071157,0.744911,0.000000,0.744911,0.000000,0.750000,0.500000,0.750000,0.500000,-0.750000,0.500000,-0.750000,
$1*%
%AMFreePoly1*
4,1,19,0.000000,0.744911,0.071157,0.744911,0.207708,0.704816,0.327430,0.627875,0.420627,0.520320,0.479746,0.390866,0.500000,0.250000,0.500000,-0.250000,0.479746,-0.390866,0.420627,-0.520320,0.327430,-0.627875,0.207708,-0.704816,0.071157,-0.744911,0.000000,-0.744911,0.000000,-0.750000,-0.500000,-0.750000,-0.500000,0.750000,0.000000,0.750000,0.000000,0.744911,0.000000,0.744911,
$1*%
G04 Aperture macros list end*
%ADD10C,0.000000*%
%ADD11C,1.200000*%
%ADD12C,0.600000*%
%ADD13HorizOval,1.000000X0.333939X0.220192X-0.333939X-0.220192X0*%
%ADD14HorizOval,1.000000X0.500909X0.330288X-0.500909X-0.330288X0*%
%ADD15C,0.900000*%
%ADD16C,1.500000*%
%ADD17RotRect,1.500000X0.900000X345.000000*%
%ADD18RotRect,1.500000X0.900000X255.000000*%
%ADD19RotRect,1.500000X0.900000X165.000000*%
%ADD20RotRect,0.900000X0.900000X165.000000*%
%ADD21FreePoly0,270.000000*%
%ADD22FreePoly1,270.000000*%
%ADD23RoundRect,0.130000X0.003511X-0.949954X0.871753X-0.377454X-0.003511X0.949954X-0.871753X0.377454X0*%
%ADD24RoundRect,0.130000X0.859467X0.404650X-0.026329X0.949596X-0.859467X-0.404650X0.026329X-0.949596X0*%
G04 APERTURE END LIST*
D10*
%TO.C,LOGO101*%
G36*
X163244334Y-75262640D02*
G01*
X163244334Y-75415458D01*
X163051300Y-75415458D01*
X162858266Y-75415458D01*
X162858266Y-76026731D01*
X162858266Y-76638004D01*
X162713491Y-76638004D01*
X162568716Y-76638004D01*
X162568716Y-76026731D01*
X162568716Y-75415458D01*
X162375683Y-75415458D01*
X162182649Y-75415458D01*
X162182649Y-75262640D01*
X162182649Y-75109822D01*
X162713491Y-75109822D01*
X163244334Y-75109822D01*
X163244334Y-75262640D01*
G37*
G36*
X161941357Y-75873913D02*
G01*
X161941357Y-76638004D01*
X161547247Y-76638004D01*
X161153137Y-76638004D01*
X161153137Y-76485186D01*
X161153137Y-76332368D01*
X161394429Y-76332368D01*
X161635721Y-76332368D01*
X161635721Y-76179549D01*
X161635721Y-76026731D01*
X161434644Y-76026731D01*
X161233567Y-76026731D01*
X161233567Y-75873913D01*
X161233567Y-75721095D01*
X161434644Y-75721095D01*
X161635721Y-75721095D01*
X161635721Y-75568276D01*
X161635721Y-75415458D01*
X161410515Y-75415458D01*
X161185309Y-75415458D01*
X161185309Y-75262640D01*
X161185309Y-75109822D01*
X161563333Y-75109822D01*
X161941357Y-75109822D01*
X161941357Y-75873913D01*
G37*
G36*
X164627741Y-75857827D02*
G01*
X164627741Y-76638004D01*
X164475194Y-76638004D01*
X164322647Y-76638004D01*
X164318354Y-76224902D01*
X164314061Y-75811801D01*
X163928323Y-76240989D01*
X163896708Y-76276122D01*
X163792782Y-76390815D01*
X163707668Y-76483222D01*
X163639704Y-76555036D01*
X163587226Y-76607947D01*
X163548569Y-76643646D01*
X163522069Y-76663826D01*
X163506062Y-76670176D01*
X163469539Y-76670176D01*
X163469539Y-75889999D01*
X163469539Y-75109822D01*
X163622095Y-75109822D01*
X163774650Y-75109822D01*
X163778935Y-75538977D01*
X163783219Y-75968133D01*
X164166680Y-75522891D01*
X164269272Y-75404218D01*
X164355650Y-75305444D01*
X164425261Y-75227415D01*
X164480023Y-75168107D01*
X164521854Y-75125498D01*
X164552672Y-75097568D01*
X164574395Y-75082292D01*
X164588941Y-75077650D01*
X164627741Y-75077650D01*
X164627741Y-75857827D01*
G37*
G36*
X168305610Y-75094958D02*
G01*
X168324098Y-75102173D01*
X168347606Y-75118142D01*
X168378828Y-75145441D01*
X168420458Y-75186648D01*
X168475189Y-75244339D01*
X168545716Y-75321090D01*
X168634732Y-75419480D01*
X168638712Y-75423897D01*
X168715981Y-75509381D01*
X168786200Y-75586567D01*
X168846483Y-75652323D01*
X168893947Y-75703517D01*
X168925705Y-75737018D01*
X168938875Y-75749694D01*
X168939242Y-75749702D01*
X168954207Y-75737279D01*
X168987421Y-75704106D01*
X169036036Y-75653201D01*
X169097203Y-75587584D01*
X169168076Y-75510274D01*
X169245806Y-75424291D01*
X169263766Y-75404302D01*
X169348622Y-75310265D01*
X169415501Y-75237264D01*
X169467172Y-75182675D01*
X169506405Y-75143874D01*
X169535968Y-75118238D01*
X169558631Y-75103142D01*
X169577163Y-75095963D01*
X169594334Y-75094077D01*
X169646613Y-75093736D01*
X169646613Y-75865870D01*
X169646613Y-76638004D01*
X169493795Y-76638004D01*
X169340977Y-76638004D01*
X169340326Y-76207700D01*
X169339676Y-75777396D01*
X169143271Y-75983886D01*
X168946867Y-76190376D01*
X168749812Y-75989358D01*
X168552757Y-75788339D01*
X168552757Y-76213171D01*
X168552757Y-76638004D01*
X168399938Y-76638004D01*
X168247120Y-76638004D01*
X168247120Y-75865870D01*
X168247120Y-75093736D01*
X168294196Y-75093736D01*
X168305610Y-75094958D01*
G37*
G36*
X160863586Y-75873913D02*
G01*
X160863586Y-76638004D01*
X160602187Y-76637725D01*
X160567988Y-76637578D01*
X160422210Y-76633645D01*
X160301455Y-76623726D01*
X160200126Y-76606952D01*
X160112628Y-76582453D01*
X160033361Y-76549360D01*
X159953124Y-76501348D01*
X159852683Y-76411901D01*
X159769381Y-76301570D01*
X159705577Y-76175330D01*
X159663630Y-76038154D01*
X159645897Y-75895016D01*
X159647191Y-75873913D01*
X159962763Y-75873913D01*
X159964107Y-75912788D01*
X159986136Y-76031512D01*
X160033340Y-76136415D01*
X160103331Y-76223219D01*
X160193719Y-76287642D01*
X160204570Y-76292989D01*
X160255656Y-76311052D01*
X160320868Y-76322554D01*
X160409153Y-76329221D01*
X160557950Y-76336205D01*
X160557950Y-75873913D01*
X160557950Y-75411621D01*
X160409153Y-75418605D01*
X160369278Y-75421040D01*
X160271719Y-75434517D01*
X160194643Y-75460180D01*
X160130046Y-75501402D01*
X160069924Y-75561554D01*
X160016428Y-75639558D01*
X159976074Y-75748467D01*
X159962763Y-75873913D01*
X159647191Y-75873913D01*
X159654738Y-75750888D01*
X159655545Y-75745955D01*
X159691933Y-75607340D01*
X159751371Y-75477938D01*
X159830119Y-75363230D01*
X159924439Y-75268697D01*
X160030593Y-75199821D01*
X160051345Y-75190039D01*
X160132293Y-75159004D01*
X160222119Y-75136392D01*
X160326554Y-75121304D01*
X160451333Y-75112840D01*
X160602187Y-75110101D01*
X160863586Y-75109822D01*
X160863586Y-75411621D01*
X160863586Y-75873913D01*
G37*
G36*
X165271211Y-75636643D02*
G01*
X165271285Y-75742060D01*
X165271714Y-75868087D01*
X165272678Y-75968016D01*
X165274349Y-76045422D01*
X165276900Y-76103882D01*
X165280505Y-76146970D01*
X165285335Y-76178263D01*
X165291563Y-76201336D01*
X165299362Y-76219765D01*
X165330356Y-76261097D01*
X165387281Y-76305086D01*
X165454451Y-76336406D01*
X165519908Y-76348101D01*
X165559066Y-76343682D01*
X165629499Y-76319572D01*
X165693129Y-76280360D01*
X165737291Y-76232765D01*
X165741464Y-76225693D01*
X165749490Y-76209238D01*
X165755838Y-76189053D01*
X165760705Y-76161583D01*
X165764286Y-76123273D01*
X165766779Y-76070568D01*
X165768380Y-75999912D01*
X165769286Y-75907750D01*
X165769692Y-75790526D01*
X165769796Y-75644686D01*
X165769856Y-75109822D01*
X165923613Y-75109822D01*
X166077370Y-75109822D01*
X166071770Y-75676858D01*
X166070409Y-75804268D01*
X166068634Y-75934135D01*
X166066566Y-76038236D01*
X166064016Y-76120102D01*
X166060797Y-76183260D01*
X166056719Y-76231241D01*
X166051595Y-76267574D01*
X166045235Y-76295787D01*
X166037451Y-76319411D01*
X166013386Y-76371366D01*
X165945414Y-76465312D01*
X165855114Y-76544034D01*
X165748279Y-76603001D01*
X165630703Y-76637677D01*
X165599933Y-76642130D01*
X165476425Y-76643458D01*
X165355240Y-76620584D01*
X165242984Y-76575950D01*
X165146264Y-76511996D01*
X165071688Y-76431163D01*
X165059193Y-76412981D01*
X165036887Y-76378435D01*
X165018855Y-76344845D01*
X165004600Y-76308528D01*
X164993625Y-76265806D01*
X164985435Y-76212996D01*
X164979533Y-76146419D01*
X164975422Y-76062393D01*
X164972607Y-75957237D01*
X164970590Y-75827271D01*
X164968875Y-75668815D01*
X164963318Y-75109822D01*
X165117252Y-75109822D01*
X165271186Y-75109822D01*
X165271211Y-75636643D01*
G37*
G36*
X167334204Y-75106524D02*
G01*
X167339281Y-75107276D01*
X167482314Y-75140570D01*
X167603869Y-75194967D01*
X167708167Y-75272338D01*
X167727458Y-75290759D01*
X167809298Y-75389704D01*
X167865732Y-75501022D01*
X167898414Y-75628868D01*
X167908995Y-75777396D01*
X167908585Y-75799385D01*
X167903392Y-75869954D01*
X167893396Y-75947485D01*
X167880068Y-76024172D01*
X167864878Y-76092208D01*
X167849299Y-76143787D01*
X167834800Y-76171101D01*
X167833970Y-76171645D01*
X167812509Y-76181220D01*
X167765597Y-76200534D01*
X167697161Y-76228057D01*
X167611125Y-76262258D01*
X167511417Y-76301605D01*
X167401962Y-76344567D01*
X167286686Y-76389611D01*
X167169516Y-76435208D01*
X167054376Y-76479824D01*
X166945193Y-76521930D01*
X166845893Y-76559993D01*
X166760402Y-76592482D01*
X166692646Y-76617866D01*
X166646550Y-76634613D01*
X166645839Y-76634862D01*
X166608631Y-76647036D01*
X166586227Y-76652820D01*
X166583463Y-76652858D01*
X166556596Y-76637406D01*
X166523185Y-76598083D01*
X166486910Y-76540629D01*
X166451452Y-76470785D01*
X166420491Y-76394292D01*
X166413761Y-76374836D01*
X166406667Y-76343831D01*
X166415124Y-76326407D01*
X166442179Y-76310832D01*
X166461843Y-76302268D01*
X166510077Y-76283226D01*
X166578119Y-76257472D01*
X166659967Y-76227269D01*
X166749623Y-76194881D01*
X166819206Y-76169743D01*
X166932027Y-76126607D01*
X167019084Y-76087936D01*
X167083682Y-76050497D01*
X167129125Y-76011059D01*
X167158718Y-75966392D01*
X167175764Y-75913263D01*
X167183568Y-75848441D01*
X167185436Y-75768695D01*
X167185377Y-75745526D01*
X167183898Y-75678320D01*
X167179765Y-75635888D01*
X167172091Y-75612436D01*
X167159991Y-75602170D01*
X167155617Y-75601176D01*
X167122937Y-75598379D01*
X167064914Y-75595969D01*
X166986670Y-75594079D01*
X166893327Y-75592847D01*
X166790010Y-75592406D01*
X166750673Y-75592336D01*
X166653210Y-75591525D01*
X166569305Y-75589916D01*
X166503612Y-75587655D01*
X166460784Y-75584885D01*
X166445474Y-75581749D01*
X166447705Y-75571671D01*
X166466582Y-75535848D01*
X166500427Y-75486839D01*
X166544057Y-75431396D01*
X166592295Y-75376273D01*
X166639960Y-75328221D01*
X166739904Y-75249235D01*
X166878207Y-75173266D01*
X167027376Y-75122874D01*
X167181384Y-75099985D01*
X167334204Y-75106524D01*
G37*
%TD*%
D11*
%TO.C,H101*%
X157833956Y-75041091D03*
%TD*%
D12*
%TO.C,U305*%
X169940888Y-68634951D03*
X168663298Y-67848972D03*
X169040100Y-68667825D03*
X169416902Y-69486678D03*
X168139312Y-68700699D03*
%TD*%
%TO.C,U304*%
X175901996Y-63273893D03*
X177154268Y-62448172D03*
X176252892Y-62443609D03*
X175351516Y-62439046D03*
X176603788Y-61613325D03*
%TD*%
D13*
%TO.C,J201*%
X194930718Y-47662237D03*
D14*
X198270109Y-45460314D03*
D13*
X188743314Y-38278547D03*
D14*
X192082706Y-36076624D03*
%TD*%
D11*
%TO.C,H103*%
X197826506Y-49701445D03*
%TD*%
D15*
%TO.C,SW501*%
X180627296Y-40765425D03*
X177539354Y-43685547D03*
%TD*%
D16*
%TO.C,TP202*%
X171012983Y-83193460D03*
%TD*%
D17*
%TO.C,U201*%
X148694751Y-97950079D03*
X149023451Y-96723353D03*
X149352151Y-95496627D03*
X149680851Y-94269901D03*
X150009551Y-93043175D03*
X150338252Y-91816450D03*
X150666952Y-90589724D03*
X150995652Y-89362998D03*
X151324352Y-88136272D03*
X151653052Y-86909546D03*
X151981753Y-85682821D03*
X152310453Y-84456095D03*
X152639153Y-83229369D03*
X152967853Y-82002643D03*
D18*
X154996236Y-81252052D03*
X156222962Y-81580752D03*
X157449688Y-81909452D03*
X158676413Y-82238152D03*
X159903139Y-82566852D03*
X161129865Y-82895553D03*
X162356591Y-83224253D03*
X163583317Y-83552953D03*
X164810042Y-83881653D03*
X166036768Y-84210353D03*
X167263494Y-84539053D03*
X168490220Y-84867754D03*
D19*
X169871555Y-86531977D03*
X169542855Y-87758702D03*
X169214155Y-88985428D03*
X168885455Y-90212154D03*
X168556754Y-91438880D03*
X168228054Y-92665606D03*
X167899354Y-93892331D03*
X167570654Y-95119057D03*
X167241954Y-96345783D03*
X166913253Y-97572509D03*
X166584553Y-98799235D03*
X166255853Y-100025960D03*
X165927153Y-101252686D03*
X165598453Y-102479412D03*
D20*
X156705846Y-90654927D03*
X156343500Y-92007223D03*
X155981153Y-93359519D03*
X158058143Y-91017273D03*
X157695796Y-92369569D03*
X157333449Y-93721866D03*
X159410439Y-91379620D03*
X159048092Y-92731916D03*
X158685745Y-94084212D03*
%TD*%
D21*
%TO.C,JP401*%
X157543827Y-113565871D03*
D22*
X157543827Y-114865871D03*
%TD*%
D21*
%TO.C,JP402*%
X155043827Y-113567658D03*
D22*
X155043827Y-114867658D03*
%TD*%
D23*
%TO.C,J504*%
X183966913Y-42650473D03*
X185302669Y-41769704D03*
X186638426Y-40888935D03*
X184519075Y-37674771D03*
X183183319Y-38555540D03*
X181847562Y-39436309D03*
%TD*%
D16*
%TO.C,TP201*%
X147637987Y-100943458D03*
%TD*%
D24*
%TO.C,J501*%
X174393098Y-77842261D03*
X173030335Y-77003884D03*
X171667572Y-76165506D03*
X169650226Y-79444655D03*
X171012989Y-80283032D03*
X172375752Y-81121410D03*
%TD*%
D21*
%TO.C,JP403*%
X152543827Y-113565870D03*
D22*
X152543827Y-114865870D03*
%TD*%
M02*
