%TF.GenerationSoftware,KiCad,Pcbnew,8.0.4*%
%TF.CreationDate,2024-09-02T19:36:40+02:00*%
%TF.ProjectId,Zoka-MainBoard,5a6f6b61-2d4d-4616-996e-426f6172642e,rev?*%
%TF.SameCoordinates,Original*%
%TF.FileFunction,Plated,1,4,PTH,Mixed*%
%TF.FilePolarity,Positive*%
%FSLAX46Y46*%
G04 Gerber Fmt 4.6, Leading zero omitted, Abs format (unit mm)*
G04 Created by KiCad (PCBNEW 8.0.4) date 2024-09-02 19:36:40*
%MOMM*%
%LPD*%
G01*
G04 APERTURE LIST*
%TA.AperFunction,ComponentDrill*%
%ADD10C,0.200000*%
%TD*%
%TA.AperFunction,ViaDrill*%
%ADD11C,0.300000*%
%TD*%
%TA.AperFunction,ComponentDrill*%
%ADD12C,0.300000*%
%TD*%
G04 aperture for slot hole*
%TA.AperFunction,ComponentDrill*%
%ADD13C,0.600000*%
%TD*%
G04 APERTURE END LIST*
D10*
%TO.C,U403*%
X151012986Y-102693457D03*
X152287986Y-101918457D03*
X152287986Y-103468457D03*
X153562986Y-102693457D03*
%TO.C,U402*%
X156412987Y-102693462D03*
X157687987Y-101918462D03*
X157687987Y-103468462D03*
X158962987Y-102693462D03*
%TO.C,U401*%
X161837989Y-102694321D03*
X163112989Y-101919321D03*
X163112989Y-103469321D03*
X164387989Y-102694321D03*
%TO.C,U303*%
X185652254Y-52129056D03*
X185936621Y-50743727D03*
X186487102Y-51578575D03*
X187037583Y-52413423D03*
X187321950Y-51028094D03*
%TD*%
D11*
X147226140Y-104976628D03*
X147551142Y-108801629D03*
X148183827Y-113325870D03*
X148351143Y-108501630D03*
X148901138Y-114676629D03*
X149051143Y-113026628D03*
X149126140Y-102126623D03*
X149273827Y-114095870D03*
X149551139Y-99251627D03*
X149823330Y-114095870D03*
X150076140Y-110576627D03*
X150126144Y-102701627D03*
X150373827Y-114095870D03*
X150551145Y-97726631D03*
X150726141Y-105701630D03*
X150901138Y-96101630D03*
X150976141Y-108201629D03*
X151151136Y-114202130D03*
X151197717Y-98145087D03*
X151201136Y-100076627D03*
X151313640Y-92839126D03*
X151476142Y-111351623D03*
X151501140Y-112151622D03*
X151501143Y-94176626D03*
X151526136Y-109751627D03*
X151569910Y-96220396D03*
X151576139Y-92226632D03*
X151749959Y-100104064D03*
X152126143Y-111376631D03*
X152201137Y-107676634D03*
X152226496Y-89451982D03*
X152276141Y-112101627D03*
X152301142Y-109976628D03*
X152378530Y-100126623D03*
X152501141Y-105801628D03*
X152676138Y-87826633D03*
X152700644Y-97351628D03*
X152701143Y-99001629D03*
X152726137Y-98226626D03*
X152776142Y-88901627D03*
X152851140Y-92426629D03*
X152890591Y-112251628D03*
X152974303Y-94555138D03*
X152978529Y-100103822D03*
X153073827Y-105295870D03*
X153076143Y-108176631D03*
X153276139Y-111376628D03*
X153316080Y-109801630D03*
X153316084Y-107051626D03*
X153326144Y-93051626D03*
X153351141Y-105795870D03*
X153351142Y-106501630D03*
X153351148Y-99001625D03*
X153376142Y-98251626D03*
X153376146Y-85626633D03*
X153452957Y-97473816D03*
X153624953Y-100099190D03*
X153665087Y-111995870D03*
X153843827Y-114065870D03*
X153923800Y-94723085D03*
X153937093Y-105827129D03*
X154051136Y-93076627D03*
X154114703Y-111363073D03*
X154265087Y-109776628D03*
X154376143Y-105452127D03*
X154401645Y-85151623D03*
X154476141Y-87726627D03*
X154486358Y-106995870D03*
X154501142Y-102951631D03*
X154543215Y-99517960D03*
X154551140Y-104276631D03*
X154676637Y-86776633D03*
X154701136Y-94351632D03*
X154701136Y-101101630D03*
X154826136Y-109176626D03*
X154890587Y-112276626D03*
X154901138Y-111676628D03*
X154951142Y-107801629D03*
X154951143Y-114026625D03*
X155126142Y-104851129D03*
X155301142Y-107126625D03*
X155326147Y-109776622D03*
X155350638Y-89001627D03*
X155360944Y-92447381D03*
X155446212Y-101033061D03*
X155651141Y-94351630D03*
X155776141Y-85401625D03*
X155801141Y-90776630D03*
X155803827Y-77765870D03*
X155873827Y-111595870D03*
X155951144Y-88851631D03*
X156050646Y-105176625D03*
X156051144Y-84376625D03*
X156100638Y-108851630D03*
X156125639Y-107101628D03*
X156176142Y-115403947D03*
X156203316Y-94374773D03*
X156244332Y-113852129D03*
X156350971Y-112270370D03*
X156425643Y-109726627D03*
X156578530Y-100203823D03*
X156643827Y-73365870D03*
X156643827Y-76865870D03*
X156651142Y-94751629D03*
X156778457Y-88753938D03*
X156904562Y-111385819D03*
X156914194Y-112335319D03*
X156976142Y-109976626D03*
X157007347Y-107351130D03*
X157146213Y-99533062D03*
X157160398Y-91518971D03*
X157178529Y-100203823D03*
X157226148Y-105426627D03*
X157376643Y-107935320D03*
X157426644Y-88755271D03*
X157453518Y-72052925D03*
X157643827Y-73365870D03*
X157676144Y-112051628D03*
X157746212Y-99533061D03*
X157776141Y-95776628D03*
X157904562Y-107135320D03*
X157921971Y-72341115D03*
X157973827Y-88395870D03*
X158143827Y-76865870D03*
X158177876Y-93243715D03*
X158201144Y-98601629D03*
X158201144Y-99176631D03*
X158226138Y-109926628D03*
X158226142Y-80176631D03*
X158226142Y-90001623D03*
X158301137Y-106726130D03*
X158301142Y-89176627D03*
X158400458Y-72635481D03*
X158424955Y-99753205D03*
X158497467Y-88075674D03*
X158500643Y-84976630D03*
X158516642Y-85695870D03*
X158600776Y-91886823D03*
X158676140Y-111476628D03*
X158751138Y-107726629D03*
X158827655Y-114056899D03*
X158873827Y-109995870D03*
X158880163Y-72930605D03*
X158901143Y-79251633D03*
X158951135Y-108343453D03*
X159101140Y-112100027D03*
X159151143Y-99776630D03*
X159303483Y-107251624D03*
X159348200Y-73219469D03*
X159373827Y-85695870D03*
X159401140Y-105426631D03*
X159501141Y-111451631D03*
X159601003Y-109907955D03*
X159643827Y-74365870D03*
X159658184Y-114439960D03*
X159776643Y-99745360D03*
X159821014Y-73500536D03*
X159876144Y-79301628D03*
X159973827Y-112095870D03*
X159997279Y-100258075D03*
X160069877Y-103016142D03*
X160098669Y-67349059D03*
X160176139Y-105251622D03*
X160201142Y-111526625D03*
X160251143Y-93026629D03*
X160301140Y-101026625D03*
X160351138Y-97676627D03*
X160351139Y-96576625D03*
X160376134Y-98601628D03*
X160401143Y-107826629D03*
X160448831Y-114178940D03*
X160551144Y-93676624D03*
X160651137Y-102501629D03*
X160658542Y-67698582D03*
X160801639Y-105251629D03*
X160873827Y-111395870D03*
X160877238Y-109992460D03*
X160883827Y-80305870D03*
X160883827Y-93005870D03*
X160901142Y-101026628D03*
X160926146Y-99401625D03*
X161001146Y-114126623D03*
X161183782Y-68040999D03*
X161278529Y-111903822D03*
X161501139Y-94401624D03*
X161681488Y-68341670D03*
X161701143Y-81101625D03*
X161726140Y-114076629D03*
X161726141Y-84426625D03*
X161726145Y-114976626D03*
X161851142Y-109951628D03*
X161851144Y-105701627D03*
X161894908Y-107857864D03*
X161901141Y-85101628D03*
X162143827Y-87965870D03*
X162153827Y-89195870D03*
X162153827Y-90465870D03*
X162165443Y-68621479D03*
X162226146Y-111351626D03*
X162451136Y-93226626D03*
X162551145Y-114201631D03*
X162573827Y-99696588D03*
X162576142Y-85101626D03*
X162626146Y-107276627D03*
X162656080Y-68913498D03*
X162904090Y-100190354D03*
X162988479Y-105851632D03*
X163070038Y-63209676D03*
X163151141Y-99676628D03*
X163176144Y-110651628D03*
X163226139Y-95851630D03*
X163226140Y-97751628D03*
X163244142Y-94894624D03*
X163362986Y-105176630D03*
X163423827Y-62525870D03*
X163423827Y-80305870D03*
X163538486Y-63497876D03*
X163626139Y-106751630D03*
X163653587Y-100160455D03*
X163826143Y-94451628D03*
X163976137Y-99676626D03*
X163980382Y-95839509D03*
X163983909Y-84817383D03*
X164016965Y-63792241D03*
X164151137Y-97676630D03*
X164226137Y-113076627D03*
X164301142Y-107101626D03*
X164307045Y-96401128D03*
X164403090Y-100226628D03*
X164416468Y-60741716D03*
X164496676Y-64087358D03*
X164626140Y-105901633D03*
X164671221Y-94885907D03*
X164673827Y-108826634D03*
X164673827Y-109401626D03*
X164673827Y-109995870D03*
X164673827Y-110545373D03*
X164776145Y-99401630D03*
X164938484Y-95618293D03*
X164964705Y-64376231D03*
X164973827Y-92895870D03*
X165000862Y-60356380D03*
X165043827Y-87965870D03*
X165053827Y-89195870D03*
X165053827Y-90465870D03*
X165226145Y-98926132D03*
X165226145Y-99726624D03*
X165437532Y-64657286D03*
X165501145Y-104626625D03*
X165673827Y-92095870D03*
X165962616Y-105958190D03*
X165963827Y-59985870D03*
X165963827Y-62525870D03*
X165963827Y-108245870D03*
X165963827Y-110785870D03*
X165976142Y-85651628D03*
X166026142Y-86526123D03*
X166066244Y-68311052D03*
X166123831Y-93949319D03*
X166176143Y-104001627D03*
X166292574Y-92005569D03*
X166951141Y-86526127D03*
X166977143Y-89352264D03*
X167027862Y-85649905D03*
X167076645Y-88295870D03*
X167143827Y-61365870D03*
X167143827Y-63865870D03*
X167276641Y-87770370D03*
X167501140Y-86526630D03*
X168013031Y-53654183D03*
X168053497Y-86353896D03*
X168097195Y-88788571D03*
X168213995Y-88139476D03*
X168430522Y-87569808D03*
X168497614Y-86973097D03*
X168503827Y-59985870D03*
X168503827Y-62525870D03*
X168503827Y-72685870D03*
X168607795Y-86333286D03*
X168619207Y-65449474D03*
X169058473Y-53248933D03*
X169172220Y-52694799D03*
X169613942Y-82439926D03*
X169651791Y-71309400D03*
X170124497Y-66581001D03*
X170143827Y-58365870D03*
X170143827Y-61365870D03*
X170143827Y-63865870D03*
X170147841Y-82240045D03*
X170179422Y-52587370D03*
X170643827Y-64365870D03*
X170954892Y-56669984D03*
X171043827Y-62525870D03*
X171043827Y-72685870D03*
X171086099Y-51449911D03*
X171341329Y-78630165D03*
X171511990Y-50869626D03*
X171539288Y-56284648D03*
X171622963Y-78125617D03*
X171697602Y-59968763D03*
X171796075Y-74360354D03*
X171952114Y-50220075D03*
X172176144Y-78776626D03*
X172332816Y-70816072D03*
X172346361Y-74229255D03*
X172391785Y-49660654D03*
X172477457Y-74779536D03*
X172584926Y-82477208D03*
X172606209Y-68003867D03*
X172643827Y-63365870D03*
X172843853Y-71130462D03*
X172962795Y-78952601D03*
X173027745Y-74648446D03*
X173074268Y-79725631D03*
X173158841Y-75198728D03*
X173274081Y-67563488D03*
X173354885Y-71444853D03*
X173583827Y-47285870D03*
X173643827Y-57365870D03*
X173669278Y-70933815D03*
X173709126Y-75067631D03*
X173714472Y-68231365D03*
X173840223Y-75617918D03*
X173941969Y-67123104D03*
X173988487Y-62171456D03*
X173991391Y-79379934D03*
X174101816Y-72139184D03*
X174143827Y-45865870D03*
X174382354Y-67790981D03*
X174390504Y-75486823D03*
X174416205Y-71628146D03*
X174504988Y-76065073D03*
X174560254Y-71012321D03*
X174609845Y-66682711D03*
X174634468Y-47535942D03*
X174874640Y-70501275D03*
X175050228Y-67350593D03*
X175143827Y-44865870D03*
X175143827Y-45865870D03*
X175251782Y-75954474D03*
X175272084Y-47594639D03*
X175277721Y-66242336D03*
X175718107Y-66910206D03*
X176123827Y-67605870D03*
X176143827Y-44865870D03*
X176143827Y-45865870D03*
X176290330Y-43689110D03*
X176764257Y-60172050D03*
X176885818Y-70094835D03*
X176942836Y-51763405D03*
X177143827Y-44865870D03*
X177143827Y-53365870D03*
X177273126Y-52264312D03*
X177637327Y-51545036D03*
X177872524Y-60399548D03*
X178143827Y-56865870D03*
X178146631Y-51076559D03*
X178202813Y-60900451D03*
X178373433Y-60069256D03*
X178499186Y-62621546D03*
X178703722Y-60570169D03*
X179417918Y-63247110D03*
X179643827Y-48365870D03*
X179643827Y-50365870D03*
X179761965Y-63768892D03*
X179832034Y-45503352D03*
X180007390Y-60549029D03*
X180169281Y-62751678D03*
X180513330Y-63273460D03*
X180677643Y-44197138D03*
X180693889Y-39467892D03*
X181070931Y-66566415D03*
X181143827Y-47365870D03*
X181198659Y-49483366D03*
X181203827Y-57445870D03*
X181457525Y-63786769D03*
X181591607Y-43085414D03*
X181670931Y-40821959D03*
X181675920Y-43957532D03*
X181740638Y-64701646D03*
X181873827Y-66095870D03*
X181875418Y-55505363D03*
X182004044Y-63613131D03*
X182143827Y-49365870D03*
X182195751Y-41160433D03*
X182374532Y-65798827D03*
X182561148Y-62833397D03*
X182569748Y-63385273D03*
X182643827Y-50365870D03*
X182744902Y-54961988D03*
X182962718Y-43439049D03*
X183226207Y-65210944D03*
X183243827Y-46865870D03*
X183545117Y-54404403D03*
X183586910Y-47519303D03*
X183619651Y-62058678D03*
X183647617Y-63141377D03*
X183809483Y-40156258D03*
X183934502Y-45650130D03*
X184291751Y-39777772D03*
X184516005Y-46158038D03*
X184761594Y-46954363D03*
X184987077Y-36654134D03*
X185119630Y-60341807D03*
X185146895Y-43436238D03*
X185270366Y-46439217D03*
X185600468Y-45455837D03*
X186127955Y-38656852D03*
X186376591Y-59517525D03*
X186420826Y-46549053D03*
X186585968Y-48545187D03*
X186643827Y-39365870D03*
X186743827Y-58665870D03*
X186935187Y-43779551D03*
X186999744Y-48991045D03*
X187030305Y-35794842D03*
X187334954Y-38323039D03*
X187507352Y-40113010D03*
X187536394Y-44623950D03*
X187570015Y-34959839D03*
X188030278Y-45140884D03*
X188104562Y-41028024D03*
X188143827Y-59465870D03*
X188317800Y-36164823D03*
X188365224Y-45648845D03*
X188490654Y-41740511D03*
X188581373Y-48508136D03*
X188633169Y-45090277D03*
X188658509Y-46282903D03*
X188876946Y-42286987D03*
X189023049Y-50771269D03*
X189128676Y-46991793D03*
X189188296Y-57214966D03*
X189373827Y-43095870D03*
X189622504Y-47767696D03*
X189644936Y-57907490D03*
X189753973Y-52804734D03*
X189910161Y-56363443D03*
X189996786Y-48293683D03*
X190081345Y-43835926D03*
X190143827Y-33865870D03*
X190143827Y-36865870D03*
X190202045Y-44498234D03*
X190309931Y-52557934D03*
X190346741Y-49021191D03*
X190346948Y-47007218D03*
X190393302Y-51997910D03*
X190643827Y-34865870D03*
X190775604Y-45114990D03*
X191184238Y-50684931D03*
X191643827Y-34365870D03*
X191645494Y-51339051D03*
X191987645Y-49496380D03*
X192073179Y-54363922D03*
X192175105Y-52187660D03*
X192214882Y-47070685D03*
X192567094Y-52827558D03*
X194643827Y-52865870D03*
X195643827Y-48865870D03*
X195643827Y-49865870D03*
X195643827Y-50865870D03*
X195643827Y-51865870D03*
X196643827Y-46365870D03*
X196643827Y-47365870D03*
X196643827Y-48365870D03*
X196643827Y-51365870D03*
X198143827Y-46865870D03*
X198143827Y-47865870D03*
X199643827Y-46365870D03*
X199643827Y-47285870D03*
X199643827Y-48365870D03*
D12*
%TO.C,U305*%
X168139312Y-68700699D03*
X168663298Y-67848972D03*
X169040100Y-68667825D03*
X169416902Y-69486678D03*
X169940888Y-68634951D03*
%TO.C,U304*%
X175351516Y-62439046D03*
X175901996Y-63273893D03*
X176252892Y-62443609D03*
X176603788Y-61613325D03*
X177154268Y-62448172D03*
D13*
%TO.C,J201*%
X189077253Y-38058355D02*
X188409375Y-38498739D01*
X192583615Y-35746336D02*
X191581797Y-36406912D01*
X195264657Y-47442045D02*
X194596779Y-47882429D01*
X198771018Y-45130026D02*
X197769200Y-45790602D01*
M02*
