%TF.GenerationSoftware,KiCad,Pcbnew,8.0.4*%
%TF.CreationDate,2024-09-02T19:36:39+02:00*%
%TF.ProjectId,Zoka-MainBoard,5a6f6b61-2d4d-4616-996e-426f6172642e,rev?*%
%TF.SameCoordinates,Original*%
%TF.FileFunction,AssemblyDrawing,Bot*%
%FSLAX46Y46*%
G04 Gerber Fmt 4.6, Leading zero omitted, Abs format (unit mm)*
G04 Created by KiCad (PCBNEW 8.0.4) date 2024-09-02 19:36:39*
%MOMM*%
%LPD*%
G01*
G04 APERTURE LIST*
%ADD10C,0.075000*%
%ADD11C,0.150000*%
%ADD12C,0.100000*%
G04 APERTURE END LIST*
D10*
X172120124Y-82920869D02*
X171834410Y-82920869D01*
X171977267Y-83420869D02*
X171977267Y-82920869D01*
X171667744Y-83420869D02*
X171667744Y-82920869D01*
X171667744Y-82920869D02*
X171477268Y-82920869D01*
X171477268Y-82920869D02*
X171429649Y-82944679D01*
X171429649Y-82944679D02*
X171405839Y-82968488D01*
X171405839Y-82968488D02*
X171382030Y-83016107D01*
X171382030Y-83016107D02*
X171382030Y-83087536D01*
X171382030Y-83087536D02*
X171405839Y-83135155D01*
X171405839Y-83135155D02*
X171429649Y-83158964D01*
X171429649Y-83158964D02*
X171477268Y-83182774D01*
X171477268Y-83182774D02*
X171667744Y-83182774D01*
X171191553Y-82968488D02*
X171167744Y-82944679D01*
X171167744Y-82944679D02*
X171120125Y-82920869D01*
X171120125Y-82920869D02*
X171001077Y-82920869D01*
X171001077Y-82920869D02*
X170953458Y-82944679D01*
X170953458Y-82944679D02*
X170929649Y-82968488D01*
X170929649Y-82968488D02*
X170905839Y-83016107D01*
X170905839Y-83016107D02*
X170905839Y-83063726D01*
X170905839Y-83063726D02*
X170929649Y-83135155D01*
X170929649Y-83135155D02*
X171215363Y-83420869D01*
X171215363Y-83420869D02*
X170905839Y-83420869D01*
X170596316Y-82920869D02*
X170548697Y-82920869D01*
X170548697Y-82920869D02*
X170501078Y-82944679D01*
X170501078Y-82944679D02*
X170477268Y-82968488D01*
X170477268Y-82968488D02*
X170453459Y-83016107D01*
X170453459Y-83016107D02*
X170429649Y-83111345D01*
X170429649Y-83111345D02*
X170429649Y-83230393D01*
X170429649Y-83230393D02*
X170453459Y-83325631D01*
X170453459Y-83325631D02*
X170477268Y-83373250D01*
X170477268Y-83373250D02*
X170501078Y-83397060D01*
X170501078Y-83397060D02*
X170548697Y-83420869D01*
X170548697Y-83420869D02*
X170596316Y-83420869D01*
X170596316Y-83420869D02*
X170643935Y-83397060D01*
X170643935Y-83397060D02*
X170667744Y-83373250D01*
X170667744Y-83373250D02*
X170691554Y-83325631D01*
X170691554Y-83325631D02*
X170715363Y-83230393D01*
X170715363Y-83230393D02*
X170715363Y-83111345D01*
X170715363Y-83111345D02*
X170691554Y-83016107D01*
X170691554Y-83016107D02*
X170667744Y-82968488D01*
X170667744Y-82968488D02*
X170643935Y-82944679D01*
X170643935Y-82944679D02*
X170596316Y-82920869D01*
X170239173Y-82968488D02*
X170215364Y-82944679D01*
X170215364Y-82944679D02*
X170167745Y-82920869D01*
X170167745Y-82920869D02*
X170048697Y-82920869D01*
X170048697Y-82920869D02*
X170001078Y-82944679D01*
X170001078Y-82944679D02*
X169977269Y-82968488D01*
X169977269Y-82968488D02*
X169953459Y-83016107D01*
X169953459Y-83016107D02*
X169953459Y-83063726D01*
X169953459Y-83063726D02*
X169977269Y-83135155D01*
X169977269Y-83135155D02*
X170262983Y-83420869D01*
X170262983Y-83420869D02*
X169953459Y-83420869D01*
D11*
X173723262Y-83610328D02*
X173401286Y-83524055D01*
X173127725Y-83993042D02*
X173587690Y-84116289D01*
X173587690Y-84116289D02*
X173846509Y-83150363D01*
X173846509Y-83150363D02*
X173386544Y-83027116D01*
X172772078Y-83848448D02*
X172621764Y-83857470D01*
X172621764Y-83857470D02*
X172391782Y-83795846D01*
X172391782Y-83795846D02*
X172312113Y-83725200D01*
X172312113Y-83725200D02*
X172278442Y-83666879D01*
X172278442Y-83666879D02*
X172257095Y-83562562D01*
X172257095Y-83562562D02*
X172281744Y-83470569D01*
X172281744Y-83470569D02*
X172352390Y-83390900D01*
X172352390Y-83390900D02*
X172410711Y-83357229D01*
X172410711Y-83357229D02*
X172515029Y-83335882D01*
X172515029Y-83335882D02*
X172711339Y-83339184D01*
X172711339Y-83339184D02*
X172815657Y-83317837D01*
X172815657Y-83317837D02*
X172873978Y-83284165D01*
X172873978Y-83284165D02*
X172944624Y-83204497D01*
X172944624Y-83204497D02*
X172969274Y-83112504D01*
X172969274Y-83112504D02*
X172947926Y-83008186D01*
X172947926Y-83008186D02*
X172914255Y-82949865D01*
X172914255Y-82949865D02*
X172834587Y-82879219D01*
X172834587Y-82879219D02*
X172604604Y-82817596D01*
X172604604Y-82817596D02*
X172454290Y-82826618D01*
X171793827Y-83635625D02*
X172052647Y-82669699D01*
X172052647Y-82669699D02*
X171684675Y-82571101D01*
X171684675Y-82571101D02*
X171580357Y-82592448D01*
X171580357Y-82592448D02*
X171522036Y-82626120D01*
X171522036Y-82626120D02*
X171451390Y-82705788D01*
X171451390Y-82705788D02*
X171414416Y-82843778D01*
X171414416Y-82843778D02*
X171435763Y-82948095D01*
X171435763Y-82948095D02*
X171469435Y-83006417D01*
X171469435Y-83006417D02*
X171549103Y-83077063D01*
X171549103Y-83077063D02*
X171917075Y-83175660D01*
X171178714Y-82435530D02*
X170580760Y-82275308D01*
X170580760Y-82275308D02*
X170804137Y-82729553D01*
X170804137Y-82729553D02*
X170666148Y-82692579D01*
X170666148Y-82692579D02*
X170561830Y-82713926D01*
X170561830Y-82713926D02*
X170503509Y-82747598D01*
X170503509Y-82747598D02*
X170432863Y-82827266D01*
X170432863Y-82827266D02*
X170371239Y-83057248D01*
X170371239Y-83057248D02*
X170392586Y-83161566D01*
X170392586Y-83161566D02*
X170426258Y-83219887D01*
X170426258Y-83219887D02*
X170505926Y-83290533D01*
X170505926Y-83290533D02*
X170781905Y-83364481D01*
X170781905Y-83364481D02*
X170886223Y-83343134D01*
X170886223Y-83343134D02*
X170944544Y-83309462D01*
X170188138Y-82268703D02*
X170154467Y-82210382D01*
X170154467Y-82210382D02*
X170074798Y-82139736D01*
X170074798Y-82139736D02*
X169844816Y-82078113D01*
X169844816Y-82078113D02*
X169740498Y-82099460D01*
X169740498Y-82099460D02*
X169682177Y-82133132D01*
X169682177Y-82133132D02*
X169611531Y-82212800D01*
X169611531Y-82212800D02*
X169586882Y-82304793D01*
X169586882Y-82304793D02*
X169595904Y-82455107D01*
X169595904Y-82455107D02*
X169999965Y-83154961D01*
X169999965Y-83154961D02*
X169402011Y-82994740D01*
X169086641Y-82515846D02*
X168350697Y-82318650D01*
X167850456Y-82529703D02*
X167700142Y-82538725D01*
X167700142Y-82538725D02*
X167470160Y-82477102D01*
X167470160Y-82477102D02*
X167390491Y-82406456D01*
X167390491Y-82406456D02*
X167356820Y-82348135D01*
X167356820Y-82348135D02*
X167335473Y-82243817D01*
X167335473Y-82243817D02*
X167360122Y-82151824D01*
X167360122Y-82151824D02*
X167430768Y-82072156D01*
X167430768Y-82072156D02*
X167489089Y-82038484D01*
X167489089Y-82038484D02*
X167593407Y-82017137D01*
X167593407Y-82017137D02*
X167789717Y-82020439D01*
X167789717Y-82020439D02*
X167894035Y-81999092D01*
X167894035Y-81999092D02*
X167952356Y-81965421D01*
X167952356Y-81965421D02*
X168023002Y-81885752D01*
X168023002Y-81885752D02*
X168047652Y-81793759D01*
X168047652Y-81793759D02*
X168026305Y-81689442D01*
X168026305Y-81689442D02*
X167992633Y-81631121D01*
X167992633Y-81631121D02*
X167912965Y-81560475D01*
X167912965Y-81560475D02*
X167682982Y-81498851D01*
X167682982Y-81498851D02*
X167532668Y-81507873D01*
X167223017Y-81375604D02*
X166625063Y-81215383D01*
X166625063Y-81215383D02*
X166848441Y-81669627D01*
X166848441Y-81669627D02*
X166710452Y-81632653D01*
X166710452Y-81632653D02*
X166606134Y-81654000D01*
X166606134Y-81654000D02*
X166547813Y-81687672D01*
X166547813Y-81687672D02*
X166477167Y-81767340D01*
X166477167Y-81767340D02*
X166415543Y-81997323D01*
X166415543Y-81997323D02*
X166436890Y-82101640D01*
X166436890Y-82101640D02*
X166470562Y-82159961D01*
X166470562Y-82159961D02*
X166550230Y-82230607D01*
X166550230Y-82230607D02*
X166826209Y-82304556D01*
X166826209Y-82304556D02*
X166930527Y-82283209D01*
X166930527Y-82283209D02*
X166988848Y-82249537D01*
X166050874Y-81702414D02*
X165314930Y-81505219D01*
X165107180Y-80808667D02*
X164618379Y-81712969D01*
X164618379Y-81712969D02*
X164619264Y-80973723D01*
X164619264Y-80973723D02*
X164250407Y-81614372D01*
X164250407Y-81614372D02*
X164279244Y-80586822D01*
X163100495Y-81306254D02*
X163545718Y-80932562D01*
X163652453Y-81454150D02*
X163911272Y-80488224D01*
X163911272Y-80488224D02*
X163543300Y-80389627D01*
X163543300Y-80389627D02*
X163438983Y-80410974D01*
X163438983Y-80410974D02*
X163380662Y-80444646D01*
X163380662Y-80444646D02*
X163310016Y-80524314D01*
X163310016Y-80524314D02*
X163273041Y-80662303D01*
X163273041Y-80662303D02*
X163294389Y-80766621D01*
X163294389Y-80766621D02*
X163328060Y-80824942D01*
X163328060Y-80824942D02*
X163407728Y-80895588D01*
X163407728Y-80895588D02*
X163775700Y-80994186D01*
X162761360Y-80180107D02*
X162577375Y-80130808D01*
X162577375Y-80130808D02*
X162473057Y-80152155D01*
X162473057Y-80152155D02*
X162356415Y-80219498D01*
X162356415Y-80219498D02*
X162261119Y-80391159D01*
X162261119Y-80391159D02*
X162174846Y-80713135D01*
X162174846Y-80713135D02*
X162171544Y-80909445D01*
X162171544Y-80909445D02*
X162238887Y-81026088D01*
X162238887Y-81026088D02*
X162318555Y-81096734D01*
X162318555Y-81096734D02*
X162502541Y-81146032D01*
X162502541Y-81146032D02*
X162606859Y-81124685D01*
X162606859Y-81124685D02*
X162723501Y-81057342D01*
X162723501Y-81057342D02*
X162818797Y-80885681D01*
X162818797Y-80885681D02*
X162905070Y-80563705D01*
X162905070Y-80563705D02*
X162908372Y-80367395D01*
X162908372Y-80367395D02*
X162841029Y-80250752D01*
X162841029Y-80250752D02*
X162761360Y-80180107D01*
X161749438Y-79908963D02*
X161565452Y-79859664D01*
X161565452Y-79859664D02*
X161461135Y-79881011D01*
X161461135Y-79881011D02*
X161344492Y-79948354D01*
X161344492Y-79948354D02*
X161249197Y-80120016D01*
X161249197Y-80120016D02*
X161162924Y-80441991D01*
X161162924Y-80441991D02*
X161159622Y-80638301D01*
X161159622Y-80638301D02*
X161226965Y-80754944D01*
X161226965Y-80754944D02*
X161306633Y-80825590D01*
X161306633Y-80825590D02*
X161490619Y-80874889D01*
X161490619Y-80874889D02*
X161594937Y-80853542D01*
X161594937Y-80853542D02*
X161711579Y-80786198D01*
X161711579Y-80786198D02*
X161806874Y-80614537D01*
X161806874Y-80614537D02*
X161893147Y-80292562D01*
X161893147Y-80292562D02*
X161896450Y-80096251D01*
X161896450Y-80096251D02*
X161829106Y-79979609D01*
X161829106Y-79979609D02*
X161749438Y-79908963D01*
X160662683Y-80653044D02*
X160921502Y-79687118D01*
X160921502Y-79687118D02*
X160414656Y-80290792D01*
X160414656Y-80290792D02*
X160277551Y-79514572D01*
X160277551Y-79514572D02*
X160018732Y-80480498D01*
X159657365Y-79989279D02*
X158921422Y-79792083D01*
X157856899Y-79901236D02*
X158408856Y-80049133D01*
X158132877Y-79975184D02*
X158391696Y-79009259D01*
X158391696Y-79009259D02*
X158446715Y-79171897D01*
X158446715Y-79171897D02*
X158514059Y-79288540D01*
X158514059Y-79288540D02*
X158593727Y-79359186D01*
X157701749Y-78824388D02*
X157492229Y-79606328D01*
X157492229Y-79606328D02*
X157421583Y-79685996D01*
X157421583Y-79685996D02*
X157363262Y-79719668D01*
X157363262Y-79719668D02*
X157258944Y-79741015D01*
X157258944Y-79741015D02*
X157074959Y-79691716D01*
X157074959Y-79691716D02*
X156995290Y-79621070D01*
X156995290Y-79621070D02*
X156961619Y-79562749D01*
X156961619Y-79562749D02*
X156940272Y-79458431D01*
X156940272Y-79458431D02*
X157149792Y-78676491D01*
X156529606Y-79151198D02*
X155793662Y-78954003D01*
X155235100Y-79198727D02*
X155493919Y-78232802D01*
X155493919Y-78232802D02*
X154683143Y-79050831D01*
X154683143Y-79050831D02*
X154941962Y-78084905D01*
X153717217Y-78792012D02*
X154269174Y-78939908D01*
X153993196Y-78865960D02*
X154252015Y-77900034D01*
X154252015Y-77900034D02*
X154307033Y-78062673D01*
X154307033Y-78062673D02*
X154374377Y-78179315D01*
X154374377Y-78179315D02*
X154454045Y-78249961D01*
X153148099Y-77604241D02*
X153332085Y-77653540D01*
X153332085Y-77653540D02*
X153411753Y-77724186D01*
X153411753Y-77724186D02*
X153445425Y-77782507D01*
X153445425Y-77782507D02*
X153500444Y-77945146D01*
X153500444Y-77945146D02*
X153497142Y-78141456D01*
X153497142Y-78141456D02*
X153398544Y-78509428D01*
X153398544Y-78509428D02*
X153327898Y-78589096D01*
X153327898Y-78589096D02*
X153269577Y-78622768D01*
X153269577Y-78622768D02*
X153165259Y-78644115D01*
X153165259Y-78644115D02*
X152981273Y-78594816D01*
X152981273Y-78594816D02*
X152901605Y-78524170D01*
X152901605Y-78524170D02*
X152867933Y-78465849D01*
X152867933Y-78465849D02*
X152846586Y-78361532D01*
X152846586Y-78361532D02*
X152908210Y-78131549D01*
X152908210Y-78131549D02*
X152978856Y-78051881D01*
X152978856Y-78051881D02*
X153037177Y-78018209D01*
X153037177Y-78018209D02*
X153141495Y-77996862D01*
X153141495Y-77996862D02*
X153325480Y-78046161D01*
X153325480Y-78046161D02*
X153405149Y-78116807D01*
X153405149Y-78116807D02*
X153438820Y-78175128D01*
X153438820Y-78175128D02*
X153460167Y-78279446D01*
X151831361Y-78286698D02*
X152276584Y-77913007D01*
X152383319Y-78434595D02*
X152642138Y-77468669D01*
X152642138Y-77468669D02*
X152274166Y-77370071D01*
X152274166Y-77370071D02*
X152169849Y-77391418D01*
X152169849Y-77391418D02*
X152111528Y-77425090D01*
X152111528Y-77425090D02*
X152040882Y-77504758D01*
X152040882Y-77504758D02*
X152003907Y-77642748D01*
X152003907Y-77642748D02*
X152025255Y-77747065D01*
X152025255Y-77747065D02*
X152058926Y-77805387D01*
X152058926Y-77805387D02*
X152138594Y-77876033D01*
X152138594Y-77876033D02*
X152506566Y-77974630D01*
X151427300Y-77586844D02*
X151531618Y-77565497D01*
X151531618Y-77565497D02*
X151589939Y-77531825D01*
X151589939Y-77531825D02*
X151660585Y-77452157D01*
X151660585Y-77452157D02*
X151672910Y-77406161D01*
X151672910Y-77406161D02*
X151651563Y-77301843D01*
X151651563Y-77301843D02*
X151617891Y-77243522D01*
X151617891Y-77243522D02*
X151538223Y-77172876D01*
X151538223Y-77172876D02*
X151354237Y-77123577D01*
X151354237Y-77123577D02*
X151249919Y-77144924D01*
X151249919Y-77144924D02*
X151191598Y-77178596D01*
X151191598Y-77178596D02*
X151120952Y-77258264D01*
X151120952Y-77258264D02*
X151108628Y-77304261D01*
X151108628Y-77304261D02*
X151129975Y-77408578D01*
X151129975Y-77408578D02*
X151163646Y-77466899D01*
X151163646Y-77466899D02*
X151243315Y-77537545D01*
X151243315Y-77537545D02*
X151427300Y-77586844D01*
X151427300Y-77586844D02*
X151506969Y-77657490D01*
X151506969Y-77657490D02*
X151540640Y-77715811D01*
X151540640Y-77715811D02*
X151561987Y-77820129D01*
X151561987Y-77820129D02*
X151512689Y-78004115D01*
X151512689Y-78004115D02*
X151442043Y-78083783D01*
X151442043Y-78083783D02*
X151383721Y-78117455D01*
X151383721Y-78117455D02*
X151279404Y-78138802D01*
X151279404Y-78138802D02*
X151095418Y-78089503D01*
X151095418Y-78089503D02*
X151015750Y-78018857D01*
X151015750Y-78018857D02*
X150982078Y-77960536D01*
X150982078Y-77960536D02*
X150960731Y-77856218D01*
X150960731Y-77856218D02*
X151010030Y-77672232D01*
X151010030Y-77672232D02*
X151080676Y-77592564D01*
X151080676Y-77592564D02*
X151138997Y-77558892D01*
X151138997Y-77558892D02*
X151243315Y-77537545D01*
X161081423Y-92153283D02*
X160871902Y-92935223D01*
X160871902Y-92935223D02*
X160801257Y-93014891D01*
X160801257Y-93014891D02*
X160742935Y-93048563D01*
X160742935Y-93048563D02*
X160638618Y-93069910D01*
X160638618Y-93069910D02*
X160454632Y-93020611D01*
X160454632Y-93020611D02*
X160374964Y-92949965D01*
X160374964Y-92949965D02*
X160341292Y-92891644D01*
X160341292Y-92891644D02*
X160319945Y-92787326D01*
X160319945Y-92787326D02*
X160529465Y-92005386D01*
X160090847Y-91986457D02*
X160057176Y-91928136D01*
X160057176Y-91928136D02*
X159977507Y-91857490D01*
X159977507Y-91857490D02*
X159747525Y-91795866D01*
X159747525Y-91795866D02*
X159643207Y-91817213D01*
X159643207Y-91817213D02*
X159584886Y-91850885D01*
X159584886Y-91850885D02*
X159514240Y-91930553D01*
X159514240Y-91930553D02*
X159489591Y-92022546D01*
X159489591Y-92022546D02*
X159498613Y-92172860D01*
X159498613Y-92172860D02*
X159902674Y-92872714D01*
X159902674Y-92872714D02*
X159304720Y-92712493D01*
X158965585Y-91586346D02*
X158873592Y-91561697D01*
X158873592Y-91561697D02*
X158769274Y-91583044D01*
X158769274Y-91583044D02*
X158710953Y-91616715D01*
X158710953Y-91616715D02*
X158640307Y-91696384D01*
X158640307Y-91696384D02*
X158545012Y-91868045D01*
X158545012Y-91868045D02*
X158483388Y-92098027D01*
X158483388Y-92098027D02*
X158480086Y-92294338D01*
X158480086Y-92294338D02*
X158501433Y-92398655D01*
X158501433Y-92398655D02*
X158535105Y-92456976D01*
X158535105Y-92456976D02*
X158614773Y-92527622D01*
X158614773Y-92527622D02*
X158706766Y-92552272D01*
X158706766Y-92552272D02*
X158811084Y-92530925D01*
X158811084Y-92530925D02*
X158869405Y-92497253D01*
X158869405Y-92497253D02*
X158940051Y-92417585D01*
X158940051Y-92417585D02*
X159035346Y-92245924D01*
X159035346Y-92245924D02*
X159096970Y-92015941D01*
X159096970Y-92015941D02*
X159100272Y-91819631D01*
X159100272Y-91819631D02*
X159078925Y-91715313D01*
X159078925Y-91715313D02*
X159045253Y-91656992D01*
X159045253Y-91656992D02*
X158965585Y-91586346D01*
X157464861Y-92219504D02*
X158016819Y-92367401D01*
X157740840Y-92293453D02*
X157999659Y-91327527D01*
X157999659Y-91327527D02*
X158054678Y-91490166D01*
X158054678Y-91490166D02*
X158122021Y-91606808D01*
X158122021Y-91606808D02*
X158201690Y-91677454D01*
X159851027Y-107183489D02*
X159898646Y-107326346D01*
X159898646Y-107326346D02*
X159898646Y-107564441D01*
X159898646Y-107564441D02*
X159851027Y-107659679D01*
X159851027Y-107659679D02*
X159803407Y-107707298D01*
X159803407Y-107707298D02*
X159708169Y-107754917D01*
X159708169Y-107754917D02*
X159612931Y-107754917D01*
X159612931Y-107754917D02*
X159517693Y-107707298D01*
X159517693Y-107707298D02*
X159470074Y-107659679D01*
X159470074Y-107659679D02*
X159422455Y-107564441D01*
X159422455Y-107564441D02*
X159374836Y-107373965D01*
X159374836Y-107373965D02*
X159327217Y-107278727D01*
X159327217Y-107278727D02*
X159279598Y-107231108D01*
X159279598Y-107231108D02*
X159184360Y-107183489D01*
X159184360Y-107183489D02*
X159089122Y-107183489D01*
X159089122Y-107183489D02*
X158993884Y-107231108D01*
X158993884Y-107231108D02*
X158946265Y-107278727D01*
X158946265Y-107278727D02*
X158898646Y-107373965D01*
X158898646Y-107373965D02*
X158898646Y-107612060D01*
X158898646Y-107612060D02*
X158946265Y-107754917D01*
X159898646Y-108326346D02*
X159851027Y-108231108D01*
X159851027Y-108231108D02*
X159803407Y-108183489D01*
X159803407Y-108183489D02*
X159708169Y-108135870D01*
X159708169Y-108135870D02*
X159422455Y-108135870D01*
X159422455Y-108135870D02*
X159327217Y-108183489D01*
X159327217Y-108183489D02*
X159279598Y-108231108D01*
X159279598Y-108231108D02*
X159231979Y-108326346D01*
X159231979Y-108326346D02*
X159231979Y-108469203D01*
X159231979Y-108469203D02*
X159279598Y-108564441D01*
X159279598Y-108564441D02*
X159327217Y-108612060D01*
X159327217Y-108612060D02*
X159422455Y-108659679D01*
X159422455Y-108659679D02*
X159708169Y-108659679D01*
X159708169Y-108659679D02*
X159803407Y-108612060D01*
X159803407Y-108612060D02*
X159851027Y-108564441D01*
X159851027Y-108564441D02*
X159898646Y-108469203D01*
X159898646Y-108469203D02*
X159898646Y-108326346D01*
X159898646Y-109231108D02*
X159851027Y-109135870D01*
X159851027Y-109135870D02*
X159755788Y-109088251D01*
X159755788Y-109088251D02*
X158898646Y-109088251D01*
X159898646Y-110040632D02*
X158898646Y-110040632D01*
X159851027Y-110040632D02*
X159898646Y-109945394D01*
X159898646Y-109945394D02*
X159898646Y-109754918D01*
X159898646Y-109754918D02*
X159851027Y-109659680D01*
X159851027Y-109659680D02*
X159803407Y-109612061D01*
X159803407Y-109612061D02*
X159708169Y-109564442D01*
X159708169Y-109564442D02*
X159422455Y-109564442D01*
X159422455Y-109564442D02*
X159327217Y-109612061D01*
X159327217Y-109612061D02*
X159279598Y-109659680D01*
X159279598Y-109659680D02*
X159231979Y-109754918D01*
X159231979Y-109754918D02*
X159231979Y-109945394D01*
X159231979Y-109945394D02*
X159279598Y-110040632D01*
X159851027Y-110897775D02*
X159898646Y-110802537D01*
X159898646Y-110802537D02*
X159898646Y-110612061D01*
X159898646Y-110612061D02*
X159851027Y-110516823D01*
X159851027Y-110516823D02*
X159755788Y-110469204D01*
X159755788Y-110469204D02*
X159374836Y-110469204D01*
X159374836Y-110469204D02*
X159279598Y-110516823D01*
X159279598Y-110516823D02*
X159231979Y-110612061D01*
X159231979Y-110612061D02*
X159231979Y-110802537D01*
X159231979Y-110802537D02*
X159279598Y-110897775D01*
X159279598Y-110897775D02*
X159374836Y-110945394D01*
X159374836Y-110945394D02*
X159470074Y-110945394D01*
X159470074Y-110945394D02*
X159565312Y-110469204D01*
X159898646Y-111373966D02*
X159231979Y-111373966D01*
X159422455Y-111373966D02*
X159327217Y-111421585D01*
X159327217Y-111421585D02*
X159279598Y-111469204D01*
X159279598Y-111469204D02*
X159231979Y-111564442D01*
X159231979Y-111564442D02*
X159231979Y-111659680D01*
X158898646Y-112278728D02*
X159612931Y-112278728D01*
X159612931Y-112278728D02*
X159755788Y-112231109D01*
X159755788Y-112231109D02*
X159851027Y-112135871D01*
X159851027Y-112135871D02*
X159898646Y-111993014D01*
X159898646Y-111993014D02*
X159898646Y-111897776D01*
X159231979Y-113183490D02*
X159898646Y-113183490D01*
X159231979Y-112754919D02*
X159755788Y-112754919D01*
X159755788Y-112754919D02*
X159851027Y-112802538D01*
X159851027Y-112802538D02*
X159898646Y-112897776D01*
X159898646Y-112897776D02*
X159898646Y-113040633D01*
X159898646Y-113040633D02*
X159851027Y-113135871D01*
X159851027Y-113135871D02*
X159803407Y-113183490D01*
X159898646Y-113659681D02*
X159231979Y-113659681D01*
X159327217Y-113659681D02*
X159279598Y-113707300D01*
X159279598Y-113707300D02*
X159231979Y-113802538D01*
X159231979Y-113802538D02*
X159231979Y-113945395D01*
X159231979Y-113945395D02*
X159279598Y-114040633D01*
X159279598Y-114040633D02*
X159374836Y-114088252D01*
X159374836Y-114088252D02*
X159898646Y-114088252D01*
X159374836Y-114088252D02*
X159279598Y-114135871D01*
X159279598Y-114135871D02*
X159231979Y-114231109D01*
X159231979Y-114231109D02*
X159231979Y-114373966D01*
X159231979Y-114373966D02*
X159279598Y-114469205D01*
X159279598Y-114469205D02*
X159374836Y-114516824D01*
X159374836Y-114516824D02*
X159898646Y-114516824D01*
X159231979Y-114993014D02*
X160231979Y-114993014D01*
X159279598Y-114993014D02*
X159231979Y-115088252D01*
X159231979Y-115088252D02*
X159231979Y-115278728D01*
X159231979Y-115278728D02*
X159279598Y-115373966D01*
X159279598Y-115373966D02*
X159327217Y-115421585D01*
X159327217Y-115421585D02*
X159422455Y-115469204D01*
X159422455Y-115469204D02*
X159708169Y-115469204D01*
X159708169Y-115469204D02*
X159803407Y-115421585D01*
X159803407Y-115421585D02*
X159851027Y-115373966D01*
X159851027Y-115373966D02*
X159898646Y-115278728D01*
X159898646Y-115278728D02*
X159898646Y-115088252D01*
X159898646Y-115088252D02*
X159851027Y-114993014D01*
X159851027Y-116278728D02*
X159898646Y-116183490D01*
X159898646Y-116183490D02*
X159898646Y-115993014D01*
X159898646Y-115993014D02*
X159851027Y-115897776D01*
X159851027Y-115897776D02*
X159755788Y-115850157D01*
X159755788Y-115850157D02*
X159374836Y-115850157D01*
X159374836Y-115850157D02*
X159279598Y-115897776D01*
X159279598Y-115897776D02*
X159231979Y-115993014D01*
X159231979Y-115993014D02*
X159231979Y-116183490D01*
X159231979Y-116183490D02*
X159279598Y-116278728D01*
X159279598Y-116278728D02*
X159374836Y-116326347D01*
X159374836Y-116326347D02*
X159470074Y-116326347D01*
X159470074Y-116326347D02*
X159565312Y-115850157D01*
X159898646Y-116754919D02*
X159231979Y-116754919D01*
X159422455Y-116754919D02*
X159327217Y-116802538D01*
X159327217Y-116802538D02*
X159279598Y-116850157D01*
X159279598Y-116850157D02*
X159231979Y-116945395D01*
X159231979Y-116945395D02*
X159231979Y-117040633D01*
X159993884Y-117135872D02*
X159993884Y-117897776D01*
X158993884Y-118088253D02*
X158946265Y-118135872D01*
X158946265Y-118135872D02*
X158898646Y-118231110D01*
X158898646Y-118231110D02*
X158898646Y-118469205D01*
X158898646Y-118469205D02*
X158946265Y-118564443D01*
X158946265Y-118564443D02*
X158993884Y-118612062D01*
X158993884Y-118612062D02*
X159089122Y-118659681D01*
X159089122Y-118659681D02*
X159184360Y-118659681D01*
X159184360Y-118659681D02*
X159327217Y-118612062D01*
X159327217Y-118612062D02*
X159898646Y-118040634D01*
X159898646Y-118040634D02*
X159898646Y-118659681D01*
X159993884Y-118850158D02*
X159993884Y-119612062D01*
X159374836Y-120183491D02*
X159422455Y-120326348D01*
X159422455Y-120326348D02*
X159470074Y-120373967D01*
X159470074Y-120373967D02*
X159565312Y-120421586D01*
X159565312Y-120421586D02*
X159708169Y-120421586D01*
X159708169Y-120421586D02*
X159803407Y-120373967D01*
X159803407Y-120373967D02*
X159851027Y-120326348D01*
X159851027Y-120326348D02*
X159898646Y-120231110D01*
X159898646Y-120231110D02*
X159898646Y-119850158D01*
X159898646Y-119850158D02*
X158898646Y-119850158D01*
X158898646Y-119850158D02*
X158898646Y-120183491D01*
X158898646Y-120183491D02*
X158946265Y-120278729D01*
X158946265Y-120278729D02*
X158993884Y-120326348D01*
X158993884Y-120326348D02*
X159089122Y-120373967D01*
X159089122Y-120373967D02*
X159184360Y-120373967D01*
X159184360Y-120373967D02*
X159279598Y-120326348D01*
X159279598Y-120326348D02*
X159327217Y-120278729D01*
X159327217Y-120278729D02*
X159374836Y-120183491D01*
X159374836Y-120183491D02*
X159374836Y-119850158D01*
X159898646Y-120850158D02*
X159231979Y-120850158D01*
X159422455Y-120850158D02*
X159327217Y-120897777D01*
X159327217Y-120897777D02*
X159279598Y-120945396D01*
X159279598Y-120945396D02*
X159231979Y-121040634D01*
X159231979Y-121040634D02*
X159231979Y-121135872D01*
X159898646Y-121469206D02*
X159231979Y-121469206D01*
X158898646Y-121469206D02*
X158946265Y-121421587D01*
X158946265Y-121421587D02*
X158993884Y-121469206D01*
X158993884Y-121469206D02*
X158946265Y-121516825D01*
X158946265Y-121516825D02*
X158898646Y-121469206D01*
X158898646Y-121469206D02*
X158993884Y-121469206D01*
X159898646Y-122373967D02*
X158898646Y-122373967D01*
X159851027Y-122373967D02*
X159898646Y-122278729D01*
X159898646Y-122278729D02*
X159898646Y-122088253D01*
X159898646Y-122088253D02*
X159851027Y-121993015D01*
X159851027Y-121993015D02*
X159803407Y-121945396D01*
X159803407Y-121945396D02*
X159708169Y-121897777D01*
X159708169Y-121897777D02*
X159422455Y-121897777D01*
X159422455Y-121897777D02*
X159327217Y-121945396D01*
X159327217Y-121945396D02*
X159279598Y-121993015D01*
X159279598Y-121993015D02*
X159231979Y-122088253D01*
X159231979Y-122088253D02*
X159231979Y-122278729D01*
X159231979Y-122278729D02*
X159279598Y-122373967D01*
X159231979Y-123278729D02*
X160041503Y-123278729D01*
X160041503Y-123278729D02*
X160136741Y-123231110D01*
X160136741Y-123231110D02*
X160184360Y-123183491D01*
X160184360Y-123183491D02*
X160231979Y-123088253D01*
X160231979Y-123088253D02*
X160231979Y-122945396D01*
X160231979Y-122945396D02*
X160184360Y-122850158D01*
X159851027Y-123278729D02*
X159898646Y-123183491D01*
X159898646Y-123183491D02*
X159898646Y-122993015D01*
X159898646Y-122993015D02*
X159851027Y-122897777D01*
X159851027Y-122897777D02*
X159803407Y-122850158D01*
X159803407Y-122850158D02*
X159708169Y-122802539D01*
X159708169Y-122802539D02*
X159422455Y-122802539D01*
X159422455Y-122802539D02*
X159327217Y-122850158D01*
X159327217Y-122850158D02*
X159279598Y-122897777D01*
X159279598Y-122897777D02*
X159231979Y-122993015D01*
X159231979Y-122993015D02*
X159231979Y-123183491D01*
X159231979Y-123183491D02*
X159279598Y-123278729D01*
X159851027Y-124135872D02*
X159898646Y-124040634D01*
X159898646Y-124040634D02*
X159898646Y-123850158D01*
X159898646Y-123850158D02*
X159851027Y-123754920D01*
X159851027Y-123754920D02*
X159755788Y-123707301D01*
X159755788Y-123707301D02*
X159374836Y-123707301D01*
X159374836Y-123707301D02*
X159279598Y-123754920D01*
X159279598Y-123754920D02*
X159231979Y-123850158D01*
X159231979Y-123850158D02*
X159231979Y-124040634D01*
X159231979Y-124040634D02*
X159279598Y-124135872D01*
X159279598Y-124135872D02*
X159374836Y-124183491D01*
X159374836Y-124183491D02*
X159470074Y-124183491D01*
X159470074Y-124183491D02*
X159565312Y-123707301D01*
X159898646Y-125040634D02*
X158898646Y-125040634D01*
X159851027Y-125040634D02*
X159898646Y-124945396D01*
X159898646Y-124945396D02*
X159898646Y-124754920D01*
X159898646Y-124754920D02*
X159851027Y-124659682D01*
X159851027Y-124659682D02*
X159803407Y-124612063D01*
X159803407Y-124612063D02*
X159708169Y-124564444D01*
X159708169Y-124564444D02*
X159422455Y-124564444D01*
X159422455Y-124564444D02*
X159327217Y-124612063D01*
X159327217Y-124612063D02*
X159279598Y-124659682D01*
X159279598Y-124659682D02*
X159231979Y-124754920D01*
X159231979Y-124754920D02*
X159231979Y-124945396D01*
X159231979Y-124945396D02*
X159279598Y-125040634D01*
X157351027Y-107185276D02*
X157398646Y-107328133D01*
X157398646Y-107328133D02*
X157398646Y-107566228D01*
X157398646Y-107566228D02*
X157351027Y-107661466D01*
X157351027Y-107661466D02*
X157303407Y-107709085D01*
X157303407Y-107709085D02*
X157208169Y-107756704D01*
X157208169Y-107756704D02*
X157112931Y-107756704D01*
X157112931Y-107756704D02*
X157017693Y-107709085D01*
X157017693Y-107709085D02*
X156970074Y-107661466D01*
X156970074Y-107661466D02*
X156922455Y-107566228D01*
X156922455Y-107566228D02*
X156874836Y-107375752D01*
X156874836Y-107375752D02*
X156827217Y-107280514D01*
X156827217Y-107280514D02*
X156779598Y-107232895D01*
X156779598Y-107232895D02*
X156684360Y-107185276D01*
X156684360Y-107185276D02*
X156589122Y-107185276D01*
X156589122Y-107185276D02*
X156493884Y-107232895D01*
X156493884Y-107232895D02*
X156446265Y-107280514D01*
X156446265Y-107280514D02*
X156398646Y-107375752D01*
X156398646Y-107375752D02*
X156398646Y-107613847D01*
X156398646Y-107613847D02*
X156446265Y-107756704D01*
X157398646Y-108328133D02*
X157351027Y-108232895D01*
X157351027Y-108232895D02*
X157303407Y-108185276D01*
X157303407Y-108185276D02*
X157208169Y-108137657D01*
X157208169Y-108137657D02*
X156922455Y-108137657D01*
X156922455Y-108137657D02*
X156827217Y-108185276D01*
X156827217Y-108185276D02*
X156779598Y-108232895D01*
X156779598Y-108232895D02*
X156731979Y-108328133D01*
X156731979Y-108328133D02*
X156731979Y-108470990D01*
X156731979Y-108470990D02*
X156779598Y-108566228D01*
X156779598Y-108566228D02*
X156827217Y-108613847D01*
X156827217Y-108613847D02*
X156922455Y-108661466D01*
X156922455Y-108661466D02*
X157208169Y-108661466D01*
X157208169Y-108661466D02*
X157303407Y-108613847D01*
X157303407Y-108613847D02*
X157351027Y-108566228D01*
X157351027Y-108566228D02*
X157398646Y-108470990D01*
X157398646Y-108470990D02*
X157398646Y-108328133D01*
X157398646Y-109232895D02*
X157351027Y-109137657D01*
X157351027Y-109137657D02*
X157255788Y-109090038D01*
X157255788Y-109090038D02*
X156398646Y-109090038D01*
X157398646Y-110042419D02*
X156398646Y-110042419D01*
X157351027Y-110042419D02*
X157398646Y-109947181D01*
X157398646Y-109947181D02*
X157398646Y-109756705D01*
X157398646Y-109756705D02*
X157351027Y-109661467D01*
X157351027Y-109661467D02*
X157303407Y-109613848D01*
X157303407Y-109613848D02*
X157208169Y-109566229D01*
X157208169Y-109566229D02*
X156922455Y-109566229D01*
X156922455Y-109566229D02*
X156827217Y-109613848D01*
X156827217Y-109613848D02*
X156779598Y-109661467D01*
X156779598Y-109661467D02*
X156731979Y-109756705D01*
X156731979Y-109756705D02*
X156731979Y-109947181D01*
X156731979Y-109947181D02*
X156779598Y-110042419D01*
X157351027Y-110899562D02*
X157398646Y-110804324D01*
X157398646Y-110804324D02*
X157398646Y-110613848D01*
X157398646Y-110613848D02*
X157351027Y-110518610D01*
X157351027Y-110518610D02*
X157255788Y-110470991D01*
X157255788Y-110470991D02*
X156874836Y-110470991D01*
X156874836Y-110470991D02*
X156779598Y-110518610D01*
X156779598Y-110518610D02*
X156731979Y-110613848D01*
X156731979Y-110613848D02*
X156731979Y-110804324D01*
X156731979Y-110804324D02*
X156779598Y-110899562D01*
X156779598Y-110899562D02*
X156874836Y-110947181D01*
X156874836Y-110947181D02*
X156970074Y-110947181D01*
X156970074Y-110947181D02*
X157065312Y-110470991D01*
X157398646Y-111375753D02*
X156731979Y-111375753D01*
X156922455Y-111375753D02*
X156827217Y-111423372D01*
X156827217Y-111423372D02*
X156779598Y-111470991D01*
X156779598Y-111470991D02*
X156731979Y-111566229D01*
X156731979Y-111566229D02*
X156731979Y-111661467D01*
X156398646Y-112280515D02*
X157112931Y-112280515D01*
X157112931Y-112280515D02*
X157255788Y-112232896D01*
X157255788Y-112232896D02*
X157351027Y-112137658D01*
X157351027Y-112137658D02*
X157398646Y-111994801D01*
X157398646Y-111994801D02*
X157398646Y-111899563D01*
X156731979Y-113185277D02*
X157398646Y-113185277D01*
X156731979Y-112756706D02*
X157255788Y-112756706D01*
X157255788Y-112756706D02*
X157351027Y-112804325D01*
X157351027Y-112804325D02*
X157398646Y-112899563D01*
X157398646Y-112899563D02*
X157398646Y-113042420D01*
X157398646Y-113042420D02*
X157351027Y-113137658D01*
X157351027Y-113137658D02*
X157303407Y-113185277D01*
X157398646Y-113661468D02*
X156731979Y-113661468D01*
X156827217Y-113661468D02*
X156779598Y-113709087D01*
X156779598Y-113709087D02*
X156731979Y-113804325D01*
X156731979Y-113804325D02*
X156731979Y-113947182D01*
X156731979Y-113947182D02*
X156779598Y-114042420D01*
X156779598Y-114042420D02*
X156874836Y-114090039D01*
X156874836Y-114090039D02*
X157398646Y-114090039D01*
X156874836Y-114090039D02*
X156779598Y-114137658D01*
X156779598Y-114137658D02*
X156731979Y-114232896D01*
X156731979Y-114232896D02*
X156731979Y-114375753D01*
X156731979Y-114375753D02*
X156779598Y-114470992D01*
X156779598Y-114470992D02*
X156874836Y-114518611D01*
X156874836Y-114518611D02*
X157398646Y-114518611D01*
X156731979Y-114994801D02*
X157731979Y-114994801D01*
X156779598Y-114994801D02*
X156731979Y-115090039D01*
X156731979Y-115090039D02*
X156731979Y-115280515D01*
X156731979Y-115280515D02*
X156779598Y-115375753D01*
X156779598Y-115375753D02*
X156827217Y-115423372D01*
X156827217Y-115423372D02*
X156922455Y-115470991D01*
X156922455Y-115470991D02*
X157208169Y-115470991D01*
X157208169Y-115470991D02*
X157303407Y-115423372D01*
X157303407Y-115423372D02*
X157351027Y-115375753D01*
X157351027Y-115375753D02*
X157398646Y-115280515D01*
X157398646Y-115280515D02*
X157398646Y-115090039D01*
X157398646Y-115090039D02*
X157351027Y-114994801D01*
X157351027Y-116280515D02*
X157398646Y-116185277D01*
X157398646Y-116185277D02*
X157398646Y-115994801D01*
X157398646Y-115994801D02*
X157351027Y-115899563D01*
X157351027Y-115899563D02*
X157255788Y-115851944D01*
X157255788Y-115851944D02*
X156874836Y-115851944D01*
X156874836Y-115851944D02*
X156779598Y-115899563D01*
X156779598Y-115899563D02*
X156731979Y-115994801D01*
X156731979Y-115994801D02*
X156731979Y-116185277D01*
X156731979Y-116185277D02*
X156779598Y-116280515D01*
X156779598Y-116280515D02*
X156874836Y-116328134D01*
X156874836Y-116328134D02*
X156970074Y-116328134D01*
X156970074Y-116328134D02*
X157065312Y-115851944D01*
X157398646Y-116756706D02*
X156731979Y-116756706D01*
X156922455Y-116756706D02*
X156827217Y-116804325D01*
X156827217Y-116804325D02*
X156779598Y-116851944D01*
X156779598Y-116851944D02*
X156731979Y-116947182D01*
X156731979Y-116947182D02*
X156731979Y-117042420D01*
X157493884Y-117137659D02*
X157493884Y-117899563D01*
X156493884Y-118090040D02*
X156446265Y-118137659D01*
X156446265Y-118137659D02*
X156398646Y-118232897D01*
X156398646Y-118232897D02*
X156398646Y-118470992D01*
X156398646Y-118470992D02*
X156446265Y-118566230D01*
X156446265Y-118566230D02*
X156493884Y-118613849D01*
X156493884Y-118613849D02*
X156589122Y-118661468D01*
X156589122Y-118661468D02*
X156684360Y-118661468D01*
X156684360Y-118661468D02*
X156827217Y-118613849D01*
X156827217Y-118613849D02*
X157398646Y-118042421D01*
X157398646Y-118042421D02*
X157398646Y-118661468D01*
X157493884Y-118851945D02*
X157493884Y-119613849D01*
X156874836Y-120185278D02*
X156922455Y-120328135D01*
X156922455Y-120328135D02*
X156970074Y-120375754D01*
X156970074Y-120375754D02*
X157065312Y-120423373D01*
X157065312Y-120423373D02*
X157208169Y-120423373D01*
X157208169Y-120423373D02*
X157303407Y-120375754D01*
X157303407Y-120375754D02*
X157351027Y-120328135D01*
X157351027Y-120328135D02*
X157398646Y-120232897D01*
X157398646Y-120232897D02*
X157398646Y-119851945D01*
X157398646Y-119851945D02*
X156398646Y-119851945D01*
X156398646Y-119851945D02*
X156398646Y-120185278D01*
X156398646Y-120185278D02*
X156446265Y-120280516D01*
X156446265Y-120280516D02*
X156493884Y-120328135D01*
X156493884Y-120328135D02*
X156589122Y-120375754D01*
X156589122Y-120375754D02*
X156684360Y-120375754D01*
X156684360Y-120375754D02*
X156779598Y-120328135D01*
X156779598Y-120328135D02*
X156827217Y-120280516D01*
X156827217Y-120280516D02*
X156874836Y-120185278D01*
X156874836Y-120185278D02*
X156874836Y-119851945D01*
X157398646Y-120851945D02*
X156731979Y-120851945D01*
X156922455Y-120851945D02*
X156827217Y-120899564D01*
X156827217Y-120899564D02*
X156779598Y-120947183D01*
X156779598Y-120947183D02*
X156731979Y-121042421D01*
X156731979Y-121042421D02*
X156731979Y-121137659D01*
X157398646Y-121470993D02*
X156731979Y-121470993D01*
X156398646Y-121470993D02*
X156446265Y-121423374D01*
X156446265Y-121423374D02*
X156493884Y-121470993D01*
X156493884Y-121470993D02*
X156446265Y-121518612D01*
X156446265Y-121518612D02*
X156398646Y-121470993D01*
X156398646Y-121470993D02*
X156493884Y-121470993D01*
X157398646Y-122375754D02*
X156398646Y-122375754D01*
X157351027Y-122375754D02*
X157398646Y-122280516D01*
X157398646Y-122280516D02*
X157398646Y-122090040D01*
X157398646Y-122090040D02*
X157351027Y-121994802D01*
X157351027Y-121994802D02*
X157303407Y-121947183D01*
X157303407Y-121947183D02*
X157208169Y-121899564D01*
X157208169Y-121899564D02*
X156922455Y-121899564D01*
X156922455Y-121899564D02*
X156827217Y-121947183D01*
X156827217Y-121947183D02*
X156779598Y-121994802D01*
X156779598Y-121994802D02*
X156731979Y-122090040D01*
X156731979Y-122090040D02*
X156731979Y-122280516D01*
X156731979Y-122280516D02*
X156779598Y-122375754D01*
X156731979Y-123280516D02*
X157541503Y-123280516D01*
X157541503Y-123280516D02*
X157636741Y-123232897D01*
X157636741Y-123232897D02*
X157684360Y-123185278D01*
X157684360Y-123185278D02*
X157731979Y-123090040D01*
X157731979Y-123090040D02*
X157731979Y-122947183D01*
X157731979Y-122947183D02*
X157684360Y-122851945D01*
X157351027Y-123280516D02*
X157398646Y-123185278D01*
X157398646Y-123185278D02*
X157398646Y-122994802D01*
X157398646Y-122994802D02*
X157351027Y-122899564D01*
X157351027Y-122899564D02*
X157303407Y-122851945D01*
X157303407Y-122851945D02*
X157208169Y-122804326D01*
X157208169Y-122804326D02*
X156922455Y-122804326D01*
X156922455Y-122804326D02*
X156827217Y-122851945D01*
X156827217Y-122851945D02*
X156779598Y-122899564D01*
X156779598Y-122899564D02*
X156731979Y-122994802D01*
X156731979Y-122994802D02*
X156731979Y-123185278D01*
X156731979Y-123185278D02*
X156779598Y-123280516D01*
X157351027Y-124137659D02*
X157398646Y-124042421D01*
X157398646Y-124042421D02*
X157398646Y-123851945D01*
X157398646Y-123851945D02*
X157351027Y-123756707D01*
X157351027Y-123756707D02*
X157255788Y-123709088D01*
X157255788Y-123709088D02*
X156874836Y-123709088D01*
X156874836Y-123709088D02*
X156779598Y-123756707D01*
X156779598Y-123756707D02*
X156731979Y-123851945D01*
X156731979Y-123851945D02*
X156731979Y-124042421D01*
X156731979Y-124042421D02*
X156779598Y-124137659D01*
X156779598Y-124137659D02*
X156874836Y-124185278D01*
X156874836Y-124185278D02*
X156970074Y-124185278D01*
X156970074Y-124185278D02*
X157065312Y-123709088D01*
X157398646Y-125042421D02*
X156398646Y-125042421D01*
X157351027Y-125042421D02*
X157398646Y-124947183D01*
X157398646Y-124947183D02*
X157398646Y-124756707D01*
X157398646Y-124756707D02*
X157351027Y-124661469D01*
X157351027Y-124661469D02*
X157303407Y-124613850D01*
X157303407Y-124613850D02*
X157208169Y-124566231D01*
X157208169Y-124566231D02*
X156922455Y-124566231D01*
X156922455Y-124566231D02*
X156827217Y-124613850D01*
X156827217Y-124613850D02*
X156779598Y-124661469D01*
X156779598Y-124661469D02*
X156731979Y-124756707D01*
X156731979Y-124756707D02*
X156731979Y-124947183D01*
X156731979Y-124947183D02*
X156779598Y-125042421D01*
D10*
X184824445Y-40549253D02*
X184526285Y-40745853D01*
X184526285Y-40745853D02*
X184479760Y-40805050D01*
X184479760Y-40805050D02*
X184466219Y-40871019D01*
X184466219Y-40871019D02*
X184485661Y-40943757D01*
X184485661Y-40943757D02*
X184511875Y-40983512D01*
X184562312Y-40151707D02*
X184693378Y-40350480D01*
X184693378Y-40350480D02*
X184507712Y-40501424D01*
X184507712Y-40501424D02*
X184514482Y-40468440D01*
X184514482Y-40468440D02*
X184508146Y-40415579D01*
X184508146Y-40415579D02*
X184442613Y-40316192D01*
X184442613Y-40316192D02*
X184396522Y-40289544D01*
X184396522Y-40289544D02*
X184363538Y-40282773D01*
X184363538Y-40282773D02*
X184310677Y-40289109D01*
X184310677Y-40289109D02*
X184211290Y-40354643D01*
X184211290Y-40354643D02*
X184184642Y-40400734D01*
X184184642Y-40400734D02*
X184177872Y-40433718D01*
X184177872Y-40433718D02*
X184184208Y-40486579D01*
X184184208Y-40486579D02*
X184249741Y-40585966D01*
X184249741Y-40585966D02*
X184295832Y-40612614D01*
X184295832Y-40612614D02*
X184328816Y-40619384D01*
X184378818Y-39873424D02*
X184352605Y-39833670D01*
X184352605Y-39833670D02*
X184306514Y-39807022D01*
X184306514Y-39807022D02*
X184273530Y-39800251D01*
X184273530Y-39800251D02*
X184220669Y-39806587D01*
X184220669Y-39806587D02*
X184128053Y-39839137D01*
X184128053Y-39839137D02*
X184028666Y-39904670D01*
X184028666Y-39904670D02*
X183962264Y-39976974D01*
X183962264Y-39976974D02*
X183935616Y-40023065D01*
X183935616Y-40023065D02*
X183928845Y-40056049D01*
X183928845Y-40056049D02*
X183935181Y-40108910D01*
X183935181Y-40108910D02*
X183961394Y-40148665D01*
X183961394Y-40148665D02*
X184007485Y-40175313D01*
X184007485Y-40175313D02*
X184040469Y-40182083D01*
X184040469Y-40182083D02*
X184093330Y-40175747D01*
X184093330Y-40175747D02*
X184185946Y-40143198D01*
X184185946Y-40143198D02*
X184285333Y-40077664D01*
X184285333Y-40077664D02*
X184351736Y-40005360D01*
X184351736Y-40005360D02*
X184378384Y-39959270D01*
X184378384Y-39959270D02*
X184385154Y-39926286D01*
X184385154Y-39926286D02*
X184378818Y-39873424D01*
X183912010Y-39468238D02*
X183633727Y-39651732D01*
X184136562Y-39462771D02*
X183903936Y-39758758D01*
X183903936Y-39758758D02*
X183733549Y-39500353D01*
X148496310Y-101694024D02*
X148332431Y-101459980D01*
X148004795Y-101863790D02*
X148414371Y-101577002D01*
X147827259Y-101610243D02*
X148236835Y-101323455D01*
X148236835Y-101323455D02*
X148127583Y-101167426D01*
X148127583Y-101167426D02*
X148080766Y-101142076D01*
X148080766Y-101142076D02*
X148047606Y-101136228D01*
X148047606Y-101136228D02*
X147994942Y-101144038D01*
X147994942Y-101144038D02*
X147936431Y-101185008D01*
X147936431Y-101185008D02*
X147911080Y-101231825D01*
X147911080Y-101231825D02*
X147905233Y-101264985D01*
X147905233Y-101264985D02*
X147913043Y-101317649D01*
X147913043Y-101317649D02*
X148022295Y-101473678D01*
X147924696Y-100960696D02*
X147930543Y-100927536D01*
X147930543Y-100927536D02*
X147922734Y-100874872D01*
X147922734Y-100874872D02*
X147854451Y-100777354D01*
X147854451Y-100777354D02*
X147807634Y-100752003D01*
X147807634Y-100752003D02*
X147774474Y-100746156D01*
X147774474Y-100746156D02*
X147721810Y-100753966D01*
X147721810Y-100753966D02*
X147682803Y-100781279D01*
X147682803Y-100781279D02*
X147637949Y-100841752D01*
X147637949Y-100841752D02*
X147567784Y-101239675D01*
X147567784Y-101239675D02*
X147390249Y-100986128D01*
X147622289Y-100445793D02*
X147594976Y-100406785D01*
X147594976Y-100406785D02*
X147548159Y-100381435D01*
X147548159Y-100381435D02*
X147514999Y-100375588D01*
X147514999Y-100375588D02*
X147462335Y-100383397D01*
X147462335Y-100383397D02*
X147370664Y-100418520D01*
X147370664Y-100418520D02*
X147273146Y-100486803D01*
X147273146Y-100486803D02*
X147208788Y-100560933D01*
X147208788Y-100560933D02*
X147183438Y-100607750D01*
X147183438Y-100607750D02*
X147177591Y-100640910D01*
X147177591Y-100640910D02*
X147185400Y-100693574D01*
X147185400Y-100693574D02*
X147212713Y-100732581D01*
X147212713Y-100732581D02*
X147259530Y-100757932D01*
X147259530Y-100757932D02*
X147292690Y-100763779D01*
X147292690Y-100763779D02*
X147345354Y-100755969D01*
X147345354Y-100755969D02*
X147437025Y-100720846D01*
X147437025Y-100720846D02*
X147534543Y-100652563D01*
X147534543Y-100652563D02*
X147598901Y-100578433D01*
X147598901Y-100578433D02*
X147624252Y-100531617D01*
X147624252Y-100531617D02*
X147630099Y-100498456D01*
X147630099Y-100498456D02*
X147622289Y-100445793D01*
X146843986Y-100205984D02*
X147007865Y-100440027D01*
X146925925Y-100323005D02*
X147335501Y-100036217D01*
X147335501Y-100036217D02*
X147304304Y-100116194D01*
X147304304Y-100116194D02*
X147292610Y-100182514D01*
X147292610Y-100182514D02*
X147300419Y-100235178D01*
X172126336Y-77953086D02*
X172430525Y-78140224D01*
X172430525Y-78140224D02*
X172503838Y-78157372D01*
X172503838Y-78157372D02*
X172569348Y-78141765D01*
X172569348Y-78141765D02*
X172627055Y-78093404D01*
X172627055Y-78093404D02*
X172652007Y-78052845D01*
X171876820Y-78358670D02*
X172001578Y-78155878D01*
X172001578Y-78155878D02*
X172216846Y-78260357D01*
X172216846Y-78260357D02*
X172184091Y-78268160D01*
X172184091Y-78268160D02*
X172138860Y-78296243D01*
X172138860Y-78296243D02*
X172076481Y-78397639D01*
X172076481Y-78397639D02*
X172071808Y-78450673D01*
X172071808Y-78450673D02*
X172079612Y-78483428D01*
X172079612Y-78483428D02*
X172107694Y-78528659D01*
X172107694Y-78528659D02*
X172209090Y-78591039D01*
X172209090Y-78591039D02*
X172262125Y-78595711D01*
X172262125Y-78595711D02*
X172294880Y-78587908D01*
X172294880Y-78587908D02*
X172340111Y-78559825D01*
X172340111Y-78559825D02*
X172402490Y-78458429D01*
X172402490Y-78458429D02*
X172407162Y-78405395D01*
X172407162Y-78405395D02*
X172399359Y-78372640D01*
X171702158Y-78642578D02*
X171677206Y-78683137D01*
X171677206Y-78683137D02*
X171672534Y-78736171D01*
X171672534Y-78736171D02*
X171680337Y-78768926D01*
X171680337Y-78768926D02*
X171708420Y-78814157D01*
X171708420Y-78814157D02*
X171777061Y-78884340D01*
X171777061Y-78884340D02*
X171878457Y-78946719D01*
X171878457Y-78946719D02*
X171972049Y-78976343D01*
X171972049Y-78976343D02*
X172025084Y-78981016D01*
X172025084Y-78981016D02*
X172057839Y-78973212D01*
X172057839Y-78973212D02*
X172103070Y-78945130D01*
X172103070Y-78945130D02*
X172128021Y-78904571D01*
X172128021Y-78904571D02*
X172132694Y-78851537D01*
X172132694Y-78851537D02*
X172124890Y-78818782D01*
X172124890Y-78818782D02*
X172096808Y-78773551D01*
X172096808Y-78773551D02*
X172028167Y-78703369D01*
X172028167Y-78703369D02*
X171926771Y-78640989D01*
X171926771Y-78640989D02*
X171833178Y-78611365D01*
X171833178Y-78611365D02*
X171780144Y-78606693D01*
X171780144Y-78606693D02*
X171747389Y-78614496D01*
X171747389Y-78614496D02*
X171702158Y-78642578D01*
X171791173Y-79452110D02*
X171940884Y-79208759D01*
X171866029Y-79330434D02*
X171440165Y-79068442D01*
X171440165Y-79068442D02*
X171525954Y-79065311D01*
X171525954Y-79065311D02*
X171591465Y-79049704D01*
X171591465Y-79049704D02*
X171636696Y-79021621D01*
D11*
X154851027Y-107183488D02*
X154898646Y-107326345D01*
X154898646Y-107326345D02*
X154898646Y-107564440D01*
X154898646Y-107564440D02*
X154851027Y-107659678D01*
X154851027Y-107659678D02*
X154803407Y-107707297D01*
X154803407Y-107707297D02*
X154708169Y-107754916D01*
X154708169Y-107754916D02*
X154612931Y-107754916D01*
X154612931Y-107754916D02*
X154517693Y-107707297D01*
X154517693Y-107707297D02*
X154470074Y-107659678D01*
X154470074Y-107659678D02*
X154422455Y-107564440D01*
X154422455Y-107564440D02*
X154374836Y-107373964D01*
X154374836Y-107373964D02*
X154327217Y-107278726D01*
X154327217Y-107278726D02*
X154279598Y-107231107D01*
X154279598Y-107231107D02*
X154184360Y-107183488D01*
X154184360Y-107183488D02*
X154089122Y-107183488D01*
X154089122Y-107183488D02*
X153993884Y-107231107D01*
X153993884Y-107231107D02*
X153946265Y-107278726D01*
X153946265Y-107278726D02*
X153898646Y-107373964D01*
X153898646Y-107373964D02*
X153898646Y-107612059D01*
X153898646Y-107612059D02*
X153946265Y-107754916D01*
X154898646Y-108326345D02*
X154851027Y-108231107D01*
X154851027Y-108231107D02*
X154803407Y-108183488D01*
X154803407Y-108183488D02*
X154708169Y-108135869D01*
X154708169Y-108135869D02*
X154422455Y-108135869D01*
X154422455Y-108135869D02*
X154327217Y-108183488D01*
X154327217Y-108183488D02*
X154279598Y-108231107D01*
X154279598Y-108231107D02*
X154231979Y-108326345D01*
X154231979Y-108326345D02*
X154231979Y-108469202D01*
X154231979Y-108469202D02*
X154279598Y-108564440D01*
X154279598Y-108564440D02*
X154327217Y-108612059D01*
X154327217Y-108612059D02*
X154422455Y-108659678D01*
X154422455Y-108659678D02*
X154708169Y-108659678D01*
X154708169Y-108659678D02*
X154803407Y-108612059D01*
X154803407Y-108612059D02*
X154851027Y-108564440D01*
X154851027Y-108564440D02*
X154898646Y-108469202D01*
X154898646Y-108469202D02*
X154898646Y-108326345D01*
X154898646Y-109231107D02*
X154851027Y-109135869D01*
X154851027Y-109135869D02*
X154755788Y-109088250D01*
X154755788Y-109088250D02*
X153898646Y-109088250D01*
X154898646Y-110040631D02*
X153898646Y-110040631D01*
X154851027Y-110040631D02*
X154898646Y-109945393D01*
X154898646Y-109945393D02*
X154898646Y-109754917D01*
X154898646Y-109754917D02*
X154851027Y-109659679D01*
X154851027Y-109659679D02*
X154803407Y-109612060D01*
X154803407Y-109612060D02*
X154708169Y-109564441D01*
X154708169Y-109564441D02*
X154422455Y-109564441D01*
X154422455Y-109564441D02*
X154327217Y-109612060D01*
X154327217Y-109612060D02*
X154279598Y-109659679D01*
X154279598Y-109659679D02*
X154231979Y-109754917D01*
X154231979Y-109754917D02*
X154231979Y-109945393D01*
X154231979Y-109945393D02*
X154279598Y-110040631D01*
X154851027Y-110897774D02*
X154898646Y-110802536D01*
X154898646Y-110802536D02*
X154898646Y-110612060D01*
X154898646Y-110612060D02*
X154851027Y-110516822D01*
X154851027Y-110516822D02*
X154755788Y-110469203D01*
X154755788Y-110469203D02*
X154374836Y-110469203D01*
X154374836Y-110469203D02*
X154279598Y-110516822D01*
X154279598Y-110516822D02*
X154231979Y-110612060D01*
X154231979Y-110612060D02*
X154231979Y-110802536D01*
X154231979Y-110802536D02*
X154279598Y-110897774D01*
X154279598Y-110897774D02*
X154374836Y-110945393D01*
X154374836Y-110945393D02*
X154470074Y-110945393D01*
X154470074Y-110945393D02*
X154565312Y-110469203D01*
X154898646Y-111373965D02*
X154231979Y-111373965D01*
X154422455Y-111373965D02*
X154327217Y-111421584D01*
X154327217Y-111421584D02*
X154279598Y-111469203D01*
X154279598Y-111469203D02*
X154231979Y-111564441D01*
X154231979Y-111564441D02*
X154231979Y-111659679D01*
X153898646Y-112278727D02*
X154612931Y-112278727D01*
X154612931Y-112278727D02*
X154755788Y-112231108D01*
X154755788Y-112231108D02*
X154851027Y-112135870D01*
X154851027Y-112135870D02*
X154898646Y-111993013D01*
X154898646Y-111993013D02*
X154898646Y-111897775D01*
X154231979Y-113183489D02*
X154898646Y-113183489D01*
X154231979Y-112754918D02*
X154755788Y-112754918D01*
X154755788Y-112754918D02*
X154851027Y-112802537D01*
X154851027Y-112802537D02*
X154898646Y-112897775D01*
X154898646Y-112897775D02*
X154898646Y-113040632D01*
X154898646Y-113040632D02*
X154851027Y-113135870D01*
X154851027Y-113135870D02*
X154803407Y-113183489D01*
X154898646Y-113659680D02*
X154231979Y-113659680D01*
X154327217Y-113659680D02*
X154279598Y-113707299D01*
X154279598Y-113707299D02*
X154231979Y-113802537D01*
X154231979Y-113802537D02*
X154231979Y-113945394D01*
X154231979Y-113945394D02*
X154279598Y-114040632D01*
X154279598Y-114040632D02*
X154374836Y-114088251D01*
X154374836Y-114088251D02*
X154898646Y-114088251D01*
X154374836Y-114088251D02*
X154279598Y-114135870D01*
X154279598Y-114135870D02*
X154231979Y-114231108D01*
X154231979Y-114231108D02*
X154231979Y-114373965D01*
X154231979Y-114373965D02*
X154279598Y-114469204D01*
X154279598Y-114469204D02*
X154374836Y-114516823D01*
X154374836Y-114516823D02*
X154898646Y-114516823D01*
X154231979Y-114993013D02*
X155231979Y-114993013D01*
X154279598Y-114993013D02*
X154231979Y-115088251D01*
X154231979Y-115088251D02*
X154231979Y-115278727D01*
X154231979Y-115278727D02*
X154279598Y-115373965D01*
X154279598Y-115373965D02*
X154327217Y-115421584D01*
X154327217Y-115421584D02*
X154422455Y-115469203D01*
X154422455Y-115469203D02*
X154708169Y-115469203D01*
X154708169Y-115469203D02*
X154803407Y-115421584D01*
X154803407Y-115421584D02*
X154851027Y-115373965D01*
X154851027Y-115373965D02*
X154898646Y-115278727D01*
X154898646Y-115278727D02*
X154898646Y-115088251D01*
X154898646Y-115088251D02*
X154851027Y-114993013D01*
X154851027Y-116278727D02*
X154898646Y-116183489D01*
X154898646Y-116183489D02*
X154898646Y-115993013D01*
X154898646Y-115993013D02*
X154851027Y-115897775D01*
X154851027Y-115897775D02*
X154755788Y-115850156D01*
X154755788Y-115850156D02*
X154374836Y-115850156D01*
X154374836Y-115850156D02*
X154279598Y-115897775D01*
X154279598Y-115897775D02*
X154231979Y-115993013D01*
X154231979Y-115993013D02*
X154231979Y-116183489D01*
X154231979Y-116183489D02*
X154279598Y-116278727D01*
X154279598Y-116278727D02*
X154374836Y-116326346D01*
X154374836Y-116326346D02*
X154470074Y-116326346D01*
X154470074Y-116326346D02*
X154565312Y-115850156D01*
X154898646Y-116754918D02*
X154231979Y-116754918D01*
X154422455Y-116754918D02*
X154327217Y-116802537D01*
X154327217Y-116802537D02*
X154279598Y-116850156D01*
X154279598Y-116850156D02*
X154231979Y-116945394D01*
X154231979Y-116945394D02*
X154231979Y-117040632D01*
X154993884Y-117135871D02*
X154993884Y-117897775D01*
X153993884Y-118088252D02*
X153946265Y-118135871D01*
X153946265Y-118135871D02*
X153898646Y-118231109D01*
X153898646Y-118231109D02*
X153898646Y-118469204D01*
X153898646Y-118469204D02*
X153946265Y-118564442D01*
X153946265Y-118564442D02*
X153993884Y-118612061D01*
X153993884Y-118612061D02*
X154089122Y-118659680D01*
X154089122Y-118659680D02*
X154184360Y-118659680D01*
X154184360Y-118659680D02*
X154327217Y-118612061D01*
X154327217Y-118612061D02*
X154898646Y-118040633D01*
X154898646Y-118040633D02*
X154898646Y-118659680D01*
X154993884Y-118850157D02*
X154993884Y-119612061D01*
X154374836Y-120183490D02*
X154422455Y-120326347D01*
X154422455Y-120326347D02*
X154470074Y-120373966D01*
X154470074Y-120373966D02*
X154565312Y-120421585D01*
X154565312Y-120421585D02*
X154708169Y-120421585D01*
X154708169Y-120421585D02*
X154803407Y-120373966D01*
X154803407Y-120373966D02*
X154851027Y-120326347D01*
X154851027Y-120326347D02*
X154898646Y-120231109D01*
X154898646Y-120231109D02*
X154898646Y-119850157D01*
X154898646Y-119850157D02*
X153898646Y-119850157D01*
X153898646Y-119850157D02*
X153898646Y-120183490D01*
X153898646Y-120183490D02*
X153946265Y-120278728D01*
X153946265Y-120278728D02*
X153993884Y-120326347D01*
X153993884Y-120326347D02*
X154089122Y-120373966D01*
X154089122Y-120373966D02*
X154184360Y-120373966D01*
X154184360Y-120373966D02*
X154279598Y-120326347D01*
X154279598Y-120326347D02*
X154327217Y-120278728D01*
X154327217Y-120278728D02*
X154374836Y-120183490D01*
X154374836Y-120183490D02*
X154374836Y-119850157D01*
X154898646Y-120850157D02*
X154231979Y-120850157D01*
X154422455Y-120850157D02*
X154327217Y-120897776D01*
X154327217Y-120897776D02*
X154279598Y-120945395D01*
X154279598Y-120945395D02*
X154231979Y-121040633D01*
X154231979Y-121040633D02*
X154231979Y-121135871D01*
X154898646Y-121469205D02*
X154231979Y-121469205D01*
X153898646Y-121469205D02*
X153946265Y-121421586D01*
X153946265Y-121421586D02*
X153993884Y-121469205D01*
X153993884Y-121469205D02*
X153946265Y-121516824D01*
X153946265Y-121516824D02*
X153898646Y-121469205D01*
X153898646Y-121469205D02*
X153993884Y-121469205D01*
X154898646Y-122373966D02*
X153898646Y-122373966D01*
X154851027Y-122373966D02*
X154898646Y-122278728D01*
X154898646Y-122278728D02*
X154898646Y-122088252D01*
X154898646Y-122088252D02*
X154851027Y-121993014D01*
X154851027Y-121993014D02*
X154803407Y-121945395D01*
X154803407Y-121945395D02*
X154708169Y-121897776D01*
X154708169Y-121897776D02*
X154422455Y-121897776D01*
X154422455Y-121897776D02*
X154327217Y-121945395D01*
X154327217Y-121945395D02*
X154279598Y-121993014D01*
X154279598Y-121993014D02*
X154231979Y-122088252D01*
X154231979Y-122088252D02*
X154231979Y-122278728D01*
X154231979Y-122278728D02*
X154279598Y-122373966D01*
X154231979Y-123278728D02*
X155041503Y-123278728D01*
X155041503Y-123278728D02*
X155136741Y-123231109D01*
X155136741Y-123231109D02*
X155184360Y-123183490D01*
X155184360Y-123183490D02*
X155231979Y-123088252D01*
X155231979Y-123088252D02*
X155231979Y-122945395D01*
X155231979Y-122945395D02*
X155184360Y-122850157D01*
X154851027Y-123278728D02*
X154898646Y-123183490D01*
X154898646Y-123183490D02*
X154898646Y-122993014D01*
X154898646Y-122993014D02*
X154851027Y-122897776D01*
X154851027Y-122897776D02*
X154803407Y-122850157D01*
X154803407Y-122850157D02*
X154708169Y-122802538D01*
X154708169Y-122802538D02*
X154422455Y-122802538D01*
X154422455Y-122802538D02*
X154327217Y-122850157D01*
X154327217Y-122850157D02*
X154279598Y-122897776D01*
X154279598Y-122897776D02*
X154231979Y-122993014D01*
X154231979Y-122993014D02*
X154231979Y-123183490D01*
X154231979Y-123183490D02*
X154279598Y-123278728D01*
X154851027Y-124135871D02*
X154898646Y-124040633D01*
X154898646Y-124040633D02*
X154898646Y-123850157D01*
X154898646Y-123850157D02*
X154851027Y-123754919D01*
X154851027Y-123754919D02*
X154755788Y-123707300D01*
X154755788Y-123707300D02*
X154374836Y-123707300D01*
X154374836Y-123707300D02*
X154279598Y-123754919D01*
X154279598Y-123754919D02*
X154231979Y-123850157D01*
X154231979Y-123850157D02*
X154231979Y-124040633D01*
X154231979Y-124040633D02*
X154279598Y-124135871D01*
X154279598Y-124135871D02*
X154374836Y-124183490D01*
X154374836Y-124183490D02*
X154470074Y-124183490D01*
X154470074Y-124183490D02*
X154565312Y-123707300D01*
X154898646Y-125040633D02*
X153898646Y-125040633D01*
X154851027Y-125040633D02*
X154898646Y-124945395D01*
X154898646Y-124945395D02*
X154898646Y-124754919D01*
X154898646Y-124754919D02*
X154851027Y-124659681D01*
X154851027Y-124659681D02*
X154803407Y-124612062D01*
X154803407Y-124612062D02*
X154708169Y-124564443D01*
X154708169Y-124564443D02*
X154422455Y-124564443D01*
X154422455Y-124564443D02*
X154327217Y-124612062D01*
X154327217Y-124612062D02*
X154279598Y-124659681D01*
X154279598Y-124659681D02*
X154231979Y-124754919D01*
X154231979Y-124754919D02*
X154231979Y-124945395D01*
X154231979Y-124945395D02*
X154279598Y-125040633D01*
D12*
%TO.C,J504*%
X183615561Y-43570895D02*
X180863157Y-39396656D01*
X187622831Y-40928588D02*
X183615561Y-43570895D01*
X187622831Y-40928588D02*
X184870427Y-36754349D01*
X184870427Y-36754349D02*
X180863157Y-39396656D01*
%TO.C,J501*%
X175375771Y-77771707D02*
X172755842Y-82030342D01*
X171287482Y-75256574D02*
X175375771Y-77771707D01*
X171287482Y-75256574D02*
X168667553Y-79515209D01*
X168667553Y-79515209D02*
X172755842Y-82030342D01*
%TD*%
M02*
