%TF.GenerationSoftware,KiCad,Pcbnew,8.0.4*%
%TF.CreationDate,2024-09-02T19:36:39+02:00*%
%TF.ProjectId,Zoka-MainBoard,5a6f6b61-2d4d-4616-996e-426f6172642e,rev?*%
%TF.SameCoordinates,Original*%
%TF.FileFunction,Paste,Bot*%
%TF.FilePolarity,Positive*%
%FSLAX46Y46*%
G04 Gerber Fmt 4.6, Leading zero omitted, Abs format (unit mm)*
G04 Created by KiCad (PCBNEW 8.0.4) date 2024-09-02 19:36:39*
%MOMM*%
%LPD*%
G01*
G04 APERTURE LIST*
G04 Aperture macros list*
%AMRotRect*
0 Rectangle, with rotation*
0 The origin of the aperture is its center*
0 $1 length*
0 $2 width*
0 $3 Rotation angle, in degrees counterclockwise*
0 Add horizontal line*
21,1,$1,$2,0,0,$3*%
G04 Aperture macros list end*
%ADD10RotRect,1.500000X0.900000X345.000000*%
%ADD11RotRect,1.500000X0.900000X255.000000*%
%ADD12RotRect,1.500000X0.900000X165.000000*%
%ADD13RotRect,0.900000X0.900000X165.000000*%
G04 APERTURE END LIST*
D10*
%TO.C,U201*%
X148694751Y-97950079D03*
X149023451Y-96723353D03*
X149352151Y-95496627D03*
X149680851Y-94269901D03*
X150009551Y-93043175D03*
X150338252Y-91816450D03*
X150666952Y-90589724D03*
X150995652Y-89362998D03*
X151324352Y-88136272D03*
X151653052Y-86909546D03*
X151981753Y-85682821D03*
X152310453Y-84456095D03*
X152639153Y-83229369D03*
X152967853Y-82002643D03*
D11*
X154996236Y-81252052D03*
X156222962Y-81580752D03*
X157449688Y-81909452D03*
X158676413Y-82238152D03*
X159903139Y-82566852D03*
X161129865Y-82895553D03*
X162356591Y-83224253D03*
X163583317Y-83552953D03*
X164810042Y-83881653D03*
X166036768Y-84210353D03*
X167263494Y-84539053D03*
X168490220Y-84867754D03*
D12*
X169871555Y-86531977D03*
X169542855Y-87758702D03*
X169214155Y-88985428D03*
X168885455Y-90212154D03*
X168556754Y-91438880D03*
X168228054Y-92665606D03*
X167899354Y-93892331D03*
X167570654Y-95119057D03*
X167241954Y-96345783D03*
X166913253Y-97572509D03*
X166584553Y-98799235D03*
X166255853Y-100025960D03*
X165927153Y-101252686D03*
X165598453Y-102479412D03*
D13*
X156705846Y-90654927D03*
X156343500Y-92007223D03*
X155981153Y-93359519D03*
X158058143Y-91017273D03*
X157695796Y-92369569D03*
X157333449Y-93721866D03*
X159410439Y-91379620D03*
X159048092Y-92731916D03*
X158685745Y-94084212D03*
%TD*%
M02*
