%TF.GenerationSoftware,KiCad,Pcbnew,8.0.4*%
%TF.CreationDate,2024-09-02T19:36:39+02:00*%
%TF.ProjectId,Zoka-MainBoard,5a6f6b61-2d4d-4616-996e-426f6172642e,rev?*%
%TF.SameCoordinates,Original*%
%TF.FileFunction,Legend,Top*%
%TF.FilePolarity,Positive*%
%FSLAX46Y46*%
G04 Gerber Fmt 4.6, Leading zero omitted, Abs format (unit mm)*
G04 Created by KiCad (PCBNEW 8.0.4) date 2024-09-02 19:36:39*
%MOMM*%
%LPD*%
G01*
G04 APERTURE LIST*
%ADD10C,0.100000*%
%ADD11C,0.120000*%
%ADD12C,0.127000*%
%ADD13C,0.300000*%
%ADD14C,0.200000*%
G04 APERTURE END LIST*
D10*
G36*
X167503490Y-60038752D02*
G01*
X167576288Y-60092817D01*
X167605751Y-60151056D01*
X167611250Y-60188299D01*
X167599878Y-60252566D01*
X167477673Y-60417115D01*
X167419438Y-60446577D01*
X167382191Y-60452077D01*
X167317925Y-60440705D01*
X167245126Y-60386640D01*
X167215664Y-60328405D01*
X167210164Y-60291158D01*
X167221536Y-60226891D01*
X167343743Y-60062340D01*
X167401977Y-60032879D01*
X167439223Y-60027380D01*
X167503490Y-60038752D01*
G37*
G36*
X169573616Y-59639706D02*
G01*
X169603079Y-59697944D01*
X169608578Y-59735189D01*
X169597206Y-59799456D01*
X169543142Y-59872254D01*
X169484906Y-59901716D01*
X169447659Y-59907216D01*
X169383393Y-59895844D01*
X169188341Y-59750986D01*
X169378565Y-59494849D01*
X169573616Y-59639706D01*
G37*
G36*
X167166643Y-58439348D02*
G01*
X166972193Y-58294937D01*
X167286035Y-58075467D01*
X167166643Y-58439348D01*
G37*
G36*
X166566344Y-57880828D02*
G01*
X166623967Y-57963230D01*
X166628928Y-57996826D01*
X166617556Y-58061091D01*
X166563491Y-58133890D01*
X166505253Y-58163352D01*
X166468009Y-58168851D01*
X166403742Y-58157479D01*
X166208691Y-58012622D01*
X166398915Y-57756485D01*
X166566344Y-57880828D01*
G37*
G36*
X166790515Y-57572793D02*
G01*
X166819978Y-57631031D01*
X166825477Y-57668276D01*
X166814105Y-57732542D01*
X166782754Y-57774758D01*
X166724516Y-57804220D01*
X166687272Y-57809719D01*
X166623005Y-57798347D01*
X166458537Y-57676203D01*
X166626048Y-57450649D01*
X166790515Y-57572793D01*
G37*
G36*
X171152891Y-60577297D02*
G01*
X169742382Y-62476550D01*
X169087089Y-61989886D01*
X169320579Y-61989886D01*
X169328425Y-62007748D01*
X169397462Y-62106472D01*
X169403249Y-62112019D01*
X169408626Y-62117959D01*
X169561544Y-62231525D01*
X169563808Y-62232597D01*
X169564465Y-62233537D01*
X169571930Y-62236445D01*
X169579174Y-62239877D01*
X169580308Y-62239709D01*
X169582643Y-62240619D01*
X169666522Y-62255462D01*
X169674526Y-62255292D01*
X169682539Y-62255691D01*
X169735836Y-62247821D01*
X169743387Y-62245124D01*
X169751103Y-62242972D01*
X169827114Y-62204518D01*
X169829084Y-62202973D01*
X169830219Y-62202806D01*
X169836155Y-62197432D01*
X169842469Y-62192485D01*
X169842826Y-62191393D01*
X169844683Y-62189714D01*
X169890110Y-62128547D01*
X169891182Y-62126282D01*
X169892122Y-62125626D01*
X169895027Y-62118167D01*
X169898463Y-62110917D01*
X169898295Y-62109780D01*
X169899204Y-62107448D01*
X169914047Y-62023569D01*
X169913877Y-62015564D01*
X169914276Y-62007552D01*
X169906406Y-61954255D01*
X169903711Y-61946709D01*
X169901558Y-61938988D01*
X169863103Y-61862978D01*
X169859726Y-61858669D01*
X169857145Y-61853837D01*
X169761005Y-61736644D01*
X169728692Y-61672771D01*
X169723193Y-61635526D01*
X169734565Y-61571259D01*
X169765915Y-61529045D01*
X169824155Y-61499582D01*
X169861398Y-61494083D01*
X169925665Y-61505455D01*
X170062592Y-61607147D01*
X170126981Y-61699221D01*
X170141066Y-61712720D01*
X170178749Y-61719388D01*
X170210109Y-61697458D01*
X170216777Y-61659774D01*
X170208931Y-61641913D01*
X170139893Y-61543190D01*
X170134107Y-61537645D01*
X170128729Y-61531703D01*
X169975812Y-61418136D01*
X169973547Y-61417063D01*
X169972891Y-61416124D01*
X169965425Y-61413215D01*
X169958182Y-61409784D01*
X169957047Y-61409951D01*
X169954713Y-61409042D01*
X169870832Y-61394199D01*
X169862828Y-61394368D01*
X169854816Y-61393970D01*
X169801520Y-61401840D01*
X169793968Y-61404536D01*
X169786253Y-61406689D01*
X169710242Y-61445142D01*
X169708269Y-61446687D01*
X169707136Y-61446855D01*
X169701196Y-61452231D01*
X169694887Y-61457176D01*
X169694529Y-61458265D01*
X169692672Y-61459947D01*
X169647246Y-61521114D01*
X169646173Y-61523378D01*
X169645234Y-61524035D01*
X169642328Y-61531493D01*
X169638893Y-61538744D01*
X169639060Y-61539880D01*
X169638152Y-61542213D01*
X169623309Y-61626093D01*
X169623478Y-61634096D01*
X169623080Y-61642109D01*
X169630950Y-61695406D01*
X169633644Y-61702951D01*
X169635798Y-61710673D01*
X169674251Y-61786683D01*
X169677629Y-61790993D01*
X169680210Y-61795824D01*
X169776351Y-61913020D01*
X169808663Y-61976888D01*
X169814162Y-62014134D01*
X169802791Y-62078399D01*
X169771438Y-62120615D01*
X169713203Y-62150077D01*
X169675956Y-62155577D01*
X169611690Y-62144205D01*
X169474762Y-62042514D01*
X169410375Y-61950440D01*
X169396291Y-61936941D01*
X169358608Y-61930273D01*
X169327247Y-61952203D01*
X169320579Y-61989886D01*
X169087089Y-61989886D01*
X168485666Y-61543230D01*
X168686522Y-61543230D01*
X168692113Y-61581088D01*
X168705205Y-61595552D01*
X169072207Y-61868112D01*
X169089837Y-61876465D01*
X169127695Y-61870874D01*
X169150512Y-61840152D01*
X169144921Y-61802294D01*
X169131830Y-61787830D01*
X168988469Y-61681361D01*
X169435638Y-61079248D01*
X169443990Y-61061618D01*
X169443238Y-61056525D01*
X169445437Y-61051871D01*
X169440527Y-61038165D01*
X169438400Y-61023760D01*
X169434266Y-61020690D01*
X169432531Y-61015845D01*
X169419367Y-61009625D01*
X169407678Y-61000944D01*
X169402585Y-61001695D01*
X169397930Y-60999496D01*
X169378634Y-61002367D01*
X169253987Y-61047020D01*
X169160317Y-61060851D01*
X169084428Y-61047423D01*
X169064924Y-61047837D01*
X169033563Y-61069768D01*
X169026895Y-61107450D01*
X169048826Y-61138811D01*
X169067004Y-61145893D01*
X169150883Y-61160736D01*
X169158887Y-61160566D01*
X169166900Y-61160965D01*
X169260671Y-61147118D01*
X168908187Y-61621738D01*
X168764827Y-61515270D01*
X168747197Y-61506917D01*
X168709339Y-61512508D01*
X168686522Y-61543230D01*
X168485666Y-61543230D01*
X167445825Y-60770976D01*
X167646682Y-60770976D01*
X167652273Y-60808834D01*
X167682995Y-60831651D01*
X167720853Y-60826060D01*
X167735317Y-60812968D01*
X167995527Y-60462593D01*
X168020311Y-60458934D01*
X168084577Y-60470306D01*
X168157375Y-60524370D01*
X168182977Y-60574977D01*
X168173095Y-60630822D01*
X167930287Y-60957766D01*
X167921934Y-60975396D01*
X167927525Y-61013254D01*
X167958247Y-61036071D01*
X167996105Y-61030480D01*
X168010569Y-61017388D01*
X168260415Y-60680970D01*
X168261488Y-60678704D01*
X168262427Y-60678048D01*
X168265334Y-60670584D01*
X168268767Y-60663339D01*
X168268599Y-60662204D01*
X168269509Y-60659870D01*
X168276068Y-60622804D01*
X169607351Y-60622804D01*
X169612942Y-60660662D01*
X169643664Y-60683479D01*
X169681522Y-60677888D01*
X169695986Y-60664796D01*
X169914438Y-60370648D01*
X170364770Y-60198425D01*
X170381282Y-60188035D01*
X170396890Y-60153095D01*
X170383221Y-60117351D01*
X170348280Y-60101743D01*
X170329049Y-60105023D01*
X169938505Y-60254381D01*
X169968610Y-59837337D01*
X169966192Y-59817979D01*
X169941150Y-59789041D01*
X169902982Y-59786285D01*
X169874044Y-59811327D01*
X169868870Y-59830137D01*
X169834156Y-60311026D01*
X169615704Y-60605174D01*
X169607351Y-60622804D01*
X168276068Y-60622804D01*
X168284352Y-60575991D01*
X168284140Y-60566038D01*
X168284974Y-60563499D01*
X168284013Y-60560056D01*
X168283938Y-60556486D01*
X168282407Y-60554297D01*
X168279733Y-60544707D01*
X168241280Y-60468697D01*
X168239734Y-60466724D01*
X168239567Y-60465591D01*
X168234190Y-60459651D01*
X168229246Y-60453342D01*
X168228156Y-60452984D01*
X168226475Y-60451127D01*
X168134724Y-60382987D01*
X168132459Y-60381914D01*
X168131803Y-60380975D01*
X168124344Y-60378069D01*
X168117094Y-60374634D01*
X168115957Y-60374801D01*
X168113625Y-60373893D01*
X168061281Y-60364630D01*
X168056065Y-60329311D01*
X168025343Y-60306494D01*
X167987485Y-60312085D01*
X167973021Y-60325177D01*
X167655035Y-60753346D01*
X167646682Y-60770976D01*
X167445825Y-60770976D01*
X166808613Y-60297741D01*
X167110051Y-60297741D01*
X167117921Y-60351038D01*
X167120617Y-60358589D01*
X167122770Y-60366305D01*
X167161224Y-60442316D01*
X167162768Y-60444286D01*
X167162936Y-60445421D01*
X167168309Y-60451357D01*
X167173257Y-60457671D01*
X167174348Y-60458028D01*
X167176028Y-60459885D01*
X167267779Y-60528025D01*
X167270043Y-60529097D01*
X167270700Y-60530037D01*
X167278158Y-60532942D01*
X167285409Y-60536378D01*
X167286545Y-60536210D01*
X167288878Y-60537119D01*
X167372757Y-60551962D01*
X167380761Y-60551792D01*
X167388774Y-60552191D01*
X167442071Y-60544321D01*
X167449622Y-60541624D01*
X167457338Y-60539472D01*
X167533349Y-60501018D01*
X167535319Y-60499473D01*
X167536454Y-60499306D01*
X167542390Y-60493932D01*
X167548704Y-60488985D01*
X167549061Y-60487893D01*
X167550918Y-60486214D01*
X167687198Y-60302714D01*
X167688271Y-60300448D01*
X167689210Y-60299792D01*
X167692117Y-60292328D01*
X167695550Y-60285083D01*
X167695382Y-60283948D01*
X167696292Y-60281614D01*
X167711135Y-60197733D01*
X167710965Y-60189729D01*
X167711364Y-60181717D01*
X167703494Y-60128421D01*
X167700797Y-60120869D01*
X167698645Y-60113154D01*
X167669211Y-60054971D01*
X168842762Y-60054971D01*
X168848353Y-60092829D01*
X168879075Y-60115646D01*
X168916933Y-60110055D01*
X168931397Y-60096963D01*
X169128719Y-59831268D01*
X169220596Y-59899502D01*
X169208279Y-60338308D01*
X169211546Y-60357541D01*
X169237836Y-60385350D01*
X169276089Y-60386424D01*
X169303898Y-60360134D01*
X169308239Y-60341114D01*
X169318592Y-59972280D01*
X169333247Y-59983164D01*
X169335511Y-59984236D01*
X169336168Y-59985176D01*
X169343626Y-59988081D01*
X169350877Y-59991517D01*
X169352013Y-59991349D01*
X169354346Y-59992258D01*
X169438225Y-60007101D01*
X169446229Y-60006931D01*
X169454242Y-60007330D01*
X169507539Y-59999460D01*
X169515090Y-59996763D01*
X169522806Y-59994611D01*
X169598817Y-59956157D01*
X169600787Y-59954612D01*
X169601922Y-59954445D01*
X169607858Y-59949071D01*
X169614172Y-59944124D01*
X169614529Y-59943032D01*
X169616386Y-59941353D01*
X169684526Y-59849604D01*
X169685599Y-59847338D01*
X169686538Y-59846682D01*
X169689445Y-59839218D01*
X169692878Y-59831973D01*
X169692710Y-59830838D01*
X169693620Y-59828504D01*
X169708463Y-59744623D01*
X169708293Y-59736619D01*
X169708692Y-59728607D01*
X169700822Y-59675310D01*
X169698127Y-59667764D01*
X169695974Y-59660043D01*
X169657521Y-59584033D01*
X169655975Y-59582060D01*
X169655808Y-59580927D01*
X169650431Y-59574987D01*
X169645487Y-59568678D01*
X169644397Y-59568320D01*
X169642716Y-59566463D01*
X169398047Y-59384757D01*
X169380417Y-59376404D01*
X169342559Y-59381995D01*
X169328095Y-59395087D01*
X168851115Y-60037341D01*
X168842762Y-60054971D01*
X167669211Y-60054971D01*
X167660192Y-60037143D01*
X167658646Y-60035170D01*
X167658479Y-60034037D01*
X167653102Y-60028097D01*
X167648158Y-60021788D01*
X167647068Y-60021430D01*
X167645387Y-60019573D01*
X167553637Y-59951433D01*
X167551372Y-59950360D01*
X167550716Y-59949421D01*
X167543250Y-59946512D01*
X167536007Y-59943081D01*
X167534872Y-59943248D01*
X167532538Y-59942339D01*
X167448657Y-59927496D01*
X167440653Y-59927665D01*
X167432641Y-59927267D01*
X167379344Y-59935137D01*
X167371798Y-59937831D01*
X167364077Y-59939985D01*
X167288067Y-59978440D01*
X167286096Y-59979984D01*
X167284961Y-59980152D01*
X167279021Y-59985527D01*
X167272711Y-59990473D01*
X167272353Y-59991564D01*
X167270497Y-59993244D01*
X167134217Y-60176745D01*
X167133144Y-60179009D01*
X167132205Y-60179666D01*
X167129299Y-60187124D01*
X167125864Y-60194375D01*
X167126031Y-60195511D01*
X167125123Y-60197844D01*
X167110280Y-60281725D01*
X167110449Y-60289728D01*
X167110051Y-60297741D01*
X166808613Y-60297741D01*
X166558903Y-60112290D01*
X166759760Y-60112290D01*
X166765351Y-60150148D01*
X166796073Y-60172965D01*
X166833931Y-60167374D01*
X166848395Y-60154282D01*
X167242650Y-59623417D01*
X168261675Y-59623417D01*
X168267266Y-59661275D01*
X168280358Y-59675739D01*
X168586193Y-59902872D01*
X168603823Y-59911225D01*
X168641681Y-59905634D01*
X168664497Y-59874912D01*
X168658907Y-59837054D01*
X168645815Y-59822590D01*
X168380121Y-59625268D01*
X168570345Y-59369131D01*
X168744289Y-59498314D01*
X168761919Y-59506667D01*
X168799777Y-59501076D01*
X168822594Y-59470354D01*
X168817004Y-59432496D01*
X168803912Y-59418032D01*
X168629967Y-59288849D01*
X168797478Y-59063296D01*
X169063173Y-59260618D01*
X169080803Y-59268971D01*
X169118661Y-59263380D01*
X169141477Y-59232658D01*
X169135887Y-59194800D01*
X169122795Y-59180336D01*
X168816960Y-58953203D01*
X168799330Y-58944850D01*
X168761472Y-58950441D01*
X168747008Y-58963533D01*
X168270028Y-59605787D01*
X168261675Y-59623417D01*
X167242650Y-59623417D01*
X167325374Y-59512029D01*
X167333726Y-59494398D01*
X167328136Y-59456540D01*
X167297414Y-59433724D01*
X167259555Y-59439314D01*
X167245092Y-59452406D01*
X166768113Y-60094660D01*
X166759760Y-60112290D01*
X166558903Y-60112290D01*
X165457896Y-59294610D01*
X165658753Y-59294610D01*
X165664344Y-59332468D01*
X165695066Y-59355285D01*
X165732924Y-59349694D01*
X165747388Y-59336602D01*
X165791597Y-59277075D01*
X166146295Y-59277075D01*
X166151886Y-59314933D01*
X166164978Y-59329397D01*
X166654313Y-59692810D01*
X166671944Y-59701162D01*
X166709802Y-59695572D01*
X166732618Y-59664850D01*
X166727028Y-59626992D01*
X166713936Y-59612528D01*
X166331013Y-59328144D01*
X167864089Y-59328144D01*
X167869680Y-59366002D01*
X167900402Y-59388819D01*
X167938260Y-59383228D01*
X167952724Y-59370136D01*
X168399892Y-58768023D01*
X168543253Y-58874492D01*
X168560883Y-58882845D01*
X168598741Y-58877254D01*
X168621558Y-58846532D01*
X168615967Y-58808674D01*
X168602876Y-58794210D01*
X168235873Y-58521650D01*
X168218243Y-58513297D01*
X168180385Y-58518888D01*
X168157568Y-58549610D01*
X168163159Y-58587468D01*
X168176251Y-58601932D01*
X168319610Y-58708400D01*
X167872442Y-59310514D01*
X167864089Y-59328144D01*
X166331013Y-59328144D01*
X166224600Y-59249115D01*
X166206970Y-59240762D01*
X166169112Y-59246353D01*
X166146295Y-59277075D01*
X165791597Y-59277075D01*
X166023566Y-58964730D01*
X167374753Y-58964730D01*
X167380344Y-59002588D01*
X167411066Y-59025405D01*
X167448924Y-59019814D01*
X167463388Y-59006722D01*
X167910556Y-58404609D01*
X168053916Y-58511078D01*
X168071547Y-58519430D01*
X168109405Y-58513840D01*
X168132221Y-58483118D01*
X168126631Y-58445259D01*
X168113539Y-58430796D01*
X167746536Y-58158236D01*
X167728906Y-58149883D01*
X167691048Y-58155474D01*
X167668231Y-58186196D01*
X167673822Y-58224054D01*
X167686914Y-58238518D01*
X167830274Y-58344987D01*
X167383106Y-58947100D01*
X167374753Y-58964730D01*
X166023566Y-58964730D01*
X166065375Y-58908434D01*
X166073727Y-58890803D01*
X166068137Y-58852945D01*
X166037415Y-58830129D01*
X165999557Y-58835719D01*
X165985093Y-58848811D01*
X165667106Y-59276980D01*
X165658753Y-59294610D01*
X165457896Y-59294610D01*
X164993015Y-58949359D01*
X165023371Y-58908484D01*
X165138833Y-58908484D01*
X165144424Y-58946342D01*
X165157516Y-58960806D01*
X165463352Y-59187939D01*
X165480982Y-59196292D01*
X165518840Y-59190701D01*
X165541657Y-59159979D01*
X165536066Y-59122121D01*
X165522974Y-59107657D01*
X165257279Y-58910335D01*
X165428556Y-58679711D01*
X166081466Y-58679711D01*
X166089336Y-58733008D01*
X166095897Y-58751381D01*
X166126619Y-58774198D01*
X166146104Y-58775168D01*
X166199401Y-58767298D01*
X166217774Y-58760737D01*
X166240591Y-58730015D01*
X166241561Y-58710530D01*
X166233691Y-58657233D01*
X166227130Y-58638860D01*
X166196408Y-58616043D01*
X166176923Y-58615073D01*
X166123626Y-58622943D01*
X166105253Y-58629504D01*
X166082436Y-58660226D01*
X166081466Y-58679711D01*
X165428556Y-58679711D01*
X165604662Y-58442584D01*
X166640421Y-58442584D01*
X166662351Y-58473945D01*
X166700034Y-58480613D01*
X166717896Y-58472767D01*
X166885810Y-58355344D01*
X167133781Y-58539504D01*
X167069904Y-58734190D01*
X167067555Y-58753557D01*
X167084830Y-58787705D01*
X167121191Y-58799635D01*
X167155339Y-58782360D01*
X167164920Y-58765366D01*
X167427815Y-57964118D01*
X167430164Y-57944752D01*
X167428477Y-57941418D01*
X167429129Y-57937738D01*
X167420043Y-57924745D01*
X167412889Y-57910604D01*
X167409338Y-57909439D01*
X167407198Y-57906378D01*
X167391589Y-57903615D01*
X167376528Y-57898674D01*
X167373194Y-57900360D01*
X167369515Y-57899709D01*
X167351654Y-57907556D01*
X166660588Y-58390817D01*
X166647089Y-58404901D01*
X166640421Y-58442584D01*
X165604662Y-58442584D01*
X165704448Y-58308222D01*
X165712800Y-58290592D01*
X165707210Y-58252734D01*
X165676488Y-58229918D01*
X165638630Y-58235508D01*
X165624166Y-58248600D01*
X165147186Y-58890854D01*
X165138833Y-58908484D01*
X165023371Y-58908484D01*
X165690071Y-58010771D01*
X166090245Y-58010771D01*
X166095836Y-58048629D01*
X166108928Y-58063093D01*
X166353596Y-58244799D01*
X166355860Y-58245871D01*
X166356517Y-58246811D01*
X166363982Y-58249719D01*
X166371226Y-58253151D01*
X166372360Y-58252983D01*
X166374695Y-58253893D01*
X166458576Y-58268736D01*
X166466579Y-58268566D01*
X166474592Y-58268965D01*
X166527888Y-58261095D01*
X166535433Y-58258400D01*
X166543155Y-58256247D01*
X166619166Y-58217793D01*
X166621138Y-58216247D01*
X166622272Y-58216080D01*
X166628211Y-58210703D01*
X166634521Y-58205759D01*
X166634878Y-58204669D01*
X166636736Y-58202988D01*
X166704876Y-58111239D01*
X166705949Y-58108973D01*
X166706888Y-58108317D01*
X166709795Y-58100853D01*
X166713228Y-58093608D01*
X166713060Y-58092473D01*
X166713970Y-58090139D01*
X166728813Y-58006260D01*
X166728643Y-57998255D01*
X166729042Y-57990242D01*
X166721171Y-57936945D01*
X166720328Y-57934585D01*
X166720528Y-57933458D01*
X166717308Y-57926127D01*
X166714610Y-57918572D01*
X166713688Y-57917887D01*
X166712682Y-57915596D01*
X166707267Y-57907852D01*
X166747151Y-57901963D01*
X166754696Y-57899268D01*
X166762418Y-57897115D01*
X166838429Y-57858661D01*
X166840401Y-57857115D01*
X166841535Y-57856948D01*
X166847474Y-57851571D01*
X166853784Y-57846627D01*
X166854141Y-57845537D01*
X166855999Y-57843856D01*
X166901425Y-57782689D01*
X166902497Y-57780424D01*
X166903437Y-57779768D01*
X166906342Y-57772309D01*
X166909778Y-57765059D01*
X166909610Y-57763922D01*
X166910519Y-57761590D01*
X166925362Y-57677711D01*
X166925192Y-57669706D01*
X166925591Y-57661694D01*
X166917721Y-57608397D01*
X166915026Y-57600851D01*
X166912873Y-57593130D01*
X166874420Y-57517120D01*
X166872874Y-57515147D01*
X166872707Y-57514014D01*
X166867330Y-57508074D01*
X166862386Y-57501765D01*
X166861296Y-57501407D01*
X166859615Y-57499550D01*
X166645530Y-57340557D01*
X166627900Y-57332204D01*
X166590042Y-57337795D01*
X166575578Y-57350887D01*
X166098598Y-57993141D01*
X166090245Y-58010771D01*
X165690071Y-58010771D01*
X166403524Y-57050106D01*
X171152891Y-60577297D01*
G37*
D11*
%TO.C,R309*%
X182779718Y-46659529D02*
X183175867Y-46398317D01*
X183354971Y-47531945D02*
X183751120Y-47270733D01*
%TO.C,R307*%
X155659351Y-95063456D02*
X155966633Y-95063456D01*
X155659351Y-95823456D02*
X155966633Y-95823456D01*
%TO.C,C320*%
X160210187Y-69832749D02*
X159936402Y-70277779D01*
X159009593Y-69094138D02*
X158735808Y-69539169D01*
%TO.C,R315*%
X179462011Y-56014308D02*
X179631164Y-56270842D01*
X178827526Y-56432674D02*
X178996679Y-56689208D01*
D12*
%TO.C,U501*%
X155376136Y-79394127D02*
G75*
G02*
X155276136Y-79394127I-50000J0D01*
G01*
X155276136Y-79394127D02*
G75*
G02*
X155376136Y-79394127I50000J0D01*
G01*
D11*
%TO.C,D301*%
X179553681Y-50400775D02*
X178562815Y-48898049D01*
X179553681Y-50400775D02*
X179994065Y-51068653D01*
X176948955Y-52118275D02*
X176508571Y-51450397D01*
X176948955Y-52118275D02*
X177389340Y-52786153D01*
%TO.C,Q305*%
X186295608Y-43385969D02*
X185480897Y-42150394D01*
X183310292Y-43581644D02*
X184521350Y-45418309D01*
X183310292Y-43581644D02*
X183811201Y-43251355D01*
X184979988Y-42480682D02*
X185480897Y-42150394D01*
%TO.C,R506*%
X149166625Y-106748457D02*
X148859343Y-106748457D01*
X149166625Y-105988457D02*
X148859343Y-105988457D01*
%TO.C,R206*%
X159532171Y-84183822D02*
X159224889Y-84183822D01*
X159532171Y-83423822D02*
X159224889Y-83423822D01*
%TO.C,R205*%
X160024889Y-84481956D02*
X160332171Y-84481956D01*
X160024889Y-85241956D02*
X160332171Y-85241956D01*
D12*
%TO.C,LED502*%
X146737970Y-103598468D02*
X146738004Y-105538468D01*
D11*
%TO.C,C301*%
X162590890Y-97897455D02*
X162590890Y-97374951D01*
X164000490Y-97897455D02*
X164000490Y-97374951D01*
%TO.C,C321*%
X161145564Y-65603847D02*
X161419349Y-65158817D01*
X162346158Y-66342458D02*
X162619943Y-65897427D01*
%TO.C,D501*%
X184959891Y-41228991D02*
X186462617Y-40238125D01*
X184959891Y-41228991D02*
X184292013Y-41669375D01*
X183242391Y-38624265D02*
X183910269Y-38183881D01*
X183242391Y-38624265D02*
X182574513Y-39064650D01*
%TO.C,C402*%
X150733979Y-99611631D02*
X150518307Y-99611631D01*
X150733979Y-98891631D02*
X150518307Y-98891631D01*
%TO.C,C304*%
X156500034Y-97897455D02*
X156500034Y-97374951D01*
X157909634Y-97897455D02*
X157909634Y-97374951D01*
%TO.C,C306*%
X179756439Y-61056315D02*
X179468811Y-60620104D01*
X180933241Y-60280358D02*
X180645612Y-59844146D01*
%TO.C,C407*%
X159077986Y-108931291D02*
X159077986Y-108715619D01*
X159797986Y-108931291D02*
X159797986Y-108715619D01*
%TO.C,R314*%
X187299684Y-42604115D02*
X187043150Y-42773268D01*
X186881318Y-41969630D02*
X186624784Y-42138783D01*
%TO.C,C401*%
X161520821Y-100353457D02*
X161305149Y-100353457D01*
X161520821Y-99633457D02*
X161305149Y-99633457D01*
%TO.C,R503*%
X153751194Y-86833446D02*
X153454382Y-86753916D01*
X153947896Y-86099342D02*
X153651084Y-86019812D01*
%TO.C,R507*%
X147407989Y-111447099D02*
X147407989Y-111139817D01*
X148167989Y-111447099D02*
X148167989Y-111139817D01*
%TO.C,C412*%
X161077985Y-108931291D02*
X161077985Y-108715619D01*
X161797985Y-108931291D02*
X161797985Y-108715619D01*
%TO.C,J401*%
X149890580Y-111056793D02*
X149890580Y-112496793D01*
X149890580Y-111056793D02*
X163890580Y-111056793D01*
X163890580Y-112556793D02*
X163890580Y-111056793D01*
%TO.C,R321*%
X160749268Y-63718310D02*
X160910279Y-63456589D01*
X161396581Y-64116539D02*
X161557592Y-63854818D01*
%TO.C,U202*%
X160116144Y-85891629D02*
X160866144Y-85891629D01*
X166336144Y-86641629D02*
X166336144Y-85891629D01*
X160116144Y-86641629D02*
X160116144Y-85891629D01*
X166336144Y-91361629D02*
X166336144Y-92111629D01*
X160116144Y-91361629D02*
X160116144Y-92111629D01*
X166336144Y-92111629D02*
X165586144Y-92111629D01*
X160116144Y-92111629D02*
X160866144Y-92111629D01*
%TO.C,R306*%
X153659348Y-95063462D02*
X153966630Y-95063462D01*
X153659348Y-95823462D02*
X153966630Y-95823462D01*
%TO.C,C414*%
X165097989Y-111840619D02*
X165097989Y-112056291D01*
X164377989Y-111840619D02*
X164377989Y-112056291D01*
%TO.C,R319*%
X171991588Y-69519251D02*
X172152599Y-69257530D01*
X172638901Y-69917480D02*
X172799912Y-69655759D01*
%TO.C,R202*%
X167539499Y-84514141D02*
X167700510Y-84252420D01*
X168186812Y-84912370D02*
X168347823Y-84650649D01*
%TO.C,C307*%
X178788772Y-61895012D02*
X178670049Y-61714958D01*
X179389863Y-61498666D02*
X179271140Y-61318612D01*
%TO.C,C204*%
X158716134Y-89859464D02*
X158716134Y-89643792D01*
X159436134Y-89859464D02*
X159436134Y-89643792D01*
%TO.C,R304*%
X188384831Y-48316539D02*
X188553984Y-48573073D01*
X187750346Y-48734905D02*
X187919499Y-48991439D01*
%TO.C,R301*%
X183944311Y-48857595D02*
X183775158Y-48601061D01*
X184578796Y-48439229D02*
X184409643Y-48182695D01*
%TO.C,R313*%
X183592521Y-44409334D02*
X183761674Y-44665868D01*
X182958036Y-44827700D02*
X183127189Y-45084234D01*
%TO.C,U303*%
X187087117Y-48655532D02*
X187348595Y-49052084D01*
X189013593Y-52440068D02*
X189410145Y-52178590D01*
X186690564Y-48917010D02*
X187087117Y-48655532D01*
X186283640Y-54240140D02*
X185887087Y-54501618D01*
X183960611Y-50717082D02*
X183564059Y-50978560D01*
X185887087Y-54501618D02*
X185625609Y-54105066D01*
X183564059Y-50978560D02*
X183825537Y-51375113D01*
%TO.C,R203*%
X167496098Y-84126659D02*
X167335087Y-84388380D01*
X166848785Y-83728430D02*
X166687774Y-83990151D01*
%TO.C,R317*%
X183178079Y-61901313D02*
X183347232Y-62157847D01*
X182543594Y-62319679D02*
X182712747Y-62576213D01*
%TO.C,R324*%
X190901774Y-50747038D02*
X191070927Y-51003572D01*
X190267289Y-51165404D02*
X190436442Y-51421938D01*
D12*
%TO.C,LED503*%
X146212983Y-108773458D02*
X146212983Y-110713458D01*
D11*
%TO.C,Q501*%
X147637989Y-107888459D02*
X147637989Y-109368459D01*
X150237989Y-109368459D02*
X150237989Y-107168459D01*
X150237989Y-109368459D02*
X149637989Y-109368459D01*
X148237989Y-109368459D02*
X147637989Y-109368459D01*
%TO.C,R501*%
X170821982Y-83158373D02*
X170982993Y-82896652D01*
X171469295Y-83556602D02*
X171630306Y-83294881D01*
%TO.C,C404*%
X162254909Y-106701563D02*
X162254909Y-106917235D01*
X161534909Y-106701563D02*
X161534909Y-106917235D01*
D12*
%TO.C,J301*%
X170345279Y-49594989D02*
X167960379Y-52806259D01*
X167218900Y-56739796D02*
X170751297Y-59363185D01*
X171991055Y-50817250D02*
X170345279Y-49594989D01*
X176687537Y-54305166D02*
X175041761Y-53082905D01*
X174302637Y-57516436D02*
X176687537Y-54305166D01*
D13*
X172486575Y-49865377D02*
G75*
G02*
X172286575Y-49865377I-100000J0D01*
G01*
X172286575Y-49865377D02*
G75*
G02*
X172486575Y-49865377I100000J0D01*
G01*
D11*
%TO.C,RT301*%
X181147726Y-48999331D02*
X180751577Y-49260543D01*
X180572473Y-48126915D02*
X180176324Y-48388127D01*
%TO.C,Q306*%
X177387237Y-46079733D02*
X176151662Y-46894444D01*
X177582912Y-49065049D02*
X179419577Y-47853991D01*
X177582912Y-49065049D02*
X177252623Y-48564140D01*
X176481950Y-47395353D02*
X176151662Y-46894444D01*
%TO.C,R204*%
X166644368Y-83602676D02*
X166483357Y-83864397D01*
X165997055Y-83204447D02*
X165836044Y-83466168D01*
D12*
%TO.C,U402*%
X155437987Y-104443462D02*
X155487987Y-104443462D01*
X155437987Y-104443462D02*
X155437987Y-103883462D01*
X159937987Y-104443462D02*
X159887987Y-104443462D01*
X159937987Y-104443462D02*
X159937987Y-103883462D01*
X155437987Y-100943462D02*
X155437987Y-101503462D01*
X155437987Y-100943462D02*
X155487987Y-100943462D01*
X159937987Y-100943462D02*
X159937987Y-101503462D01*
X159937987Y-100943462D02*
X159887987Y-100943462D01*
D14*
X155287987Y-104693462D02*
G75*
G02*
X155087987Y-104693462I-100000J0D01*
G01*
X155087987Y-104693462D02*
G75*
G02*
X155287987Y-104693462I100000J0D01*
G01*
D11*
%TO.C,R303*%
X189230451Y-47752296D02*
X189399604Y-48008830D01*
X188595966Y-48170662D02*
X188765119Y-48427196D01*
%TO.C,R201*%
X149482954Y-94495692D02*
X149562484Y-94198880D01*
X150217058Y-94692394D02*
X150296588Y-94395582D01*
%TO.C,C409*%
X156602987Y-108926293D02*
X156602987Y-108710621D01*
X157322987Y-108926293D02*
X157322987Y-108710621D01*
%TO.C,C322*%
X163104532Y-66809012D02*
X163378317Y-66363982D01*
X164305126Y-67547623D02*
X164578911Y-67102592D01*
%TO.C,D201*%
X189048215Y-46697631D02*
X190550941Y-45706765D01*
X189048215Y-46697631D02*
X188380337Y-47138015D01*
X187330715Y-44092905D02*
X187998593Y-43652521D01*
X187330715Y-44092905D02*
X186662837Y-44533290D01*
%TO.C,C310*%
X189284440Y-54758248D02*
X189439213Y-54992974D01*
X188432895Y-55319738D02*
X188587668Y-55554464D01*
%TO.C,C308*%
X188064407Y-55542041D02*
X188183130Y-55722095D01*
X187463316Y-55938387D02*
X187582039Y-56118441D01*
%TO.C,Q307*%
X182306955Y-65085341D02*
X181555592Y-65580773D01*
X181555592Y-65580773D02*
X181115207Y-64912895D01*
X180234438Y-63577138D02*
X179794054Y-62909260D01*
X179794054Y-62909260D02*
X179961023Y-62799164D01*
%TO.C,C202*%
X151746121Y-96060012D02*
X151610887Y-96564712D01*
X150384552Y-95695181D02*
X150249318Y-96199881D01*
%TO.C,U503*%
X158551139Y-83056630D02*
X158551139Y-83056630D01*
X160251139Y-83056630D02*
X160251139Y-83056630D01*
X160751139Y-83056630D02*
X160251139Y-83056630D01*
X158551139Y-82556630D02*
X158551139Y-83056630D01*
X160751139Y-82556630D02*
X160751139Y-83056630D01*
X158551139Y-81356630D02*
X158551139Y-80856630D01*
X160751139Y-81356630D02*
X160751139Y-81356630D01*
X158551139Y-80856630D02*
X159051139Y-80856630D01*
X159051139Y-80856630D02*
X159051139Y-80856630D01*
X160251139Y-80856630D02*
X160751139Y-80856630D01*
X160751139Y-80856630D02*
X160751139Y-81356630D01*
%TO.C,C408*%
X151802985Y-108926291D02*
X151802985Y-108710619D01*
X152522985Y-108926291D02*
X152522985Y-108710619D01*
%TO.C,Q301*%
X159192986Y-93243462D02*
X157712986Y-93243462D01*
X157712986Y-95843462D02*
X159912986Y-95843462D01*
X157712986Y-95843462D02*
X157712986Y-95243462D01*
X157712986Y-93843462D02*
X157712986Y-93243462D01*
%TO.C,C317*%
X170590271Y-71186361D02*
X170703280Y-71002667D01*
X171203514Y-71563631D02*
X171316523Y-71379937D01*
%TO.C,C312*%
X183930595Y-53678736D02*
X184218223Y-54114947D01*
X182753793Y-54454693D02*
X183041422Y-54890905D01*
%TO.C,C413*%
X149397989Y-111635629D02*
X149397989Y-111851301D01*
X148677989Y-111635629D02*
X148677989Y-111851301D01*
%TO.C,U302*%
X182881617Y-60929689D02*
X183982579Y-62599384D01*
X185285460Y-60542469D02*
X185835941Y-61377317D01*
%TO.C,C302*%
X189107111Y-49389840D02*
X189287165Y-49271117D01*
X189503457Y-49990931D02*
X189683511Y-49872208D01*
%TO.C,C501*%
X152916134Y-82092208D02*
X152916134Y-81811048D01*
X153936134Y-82092208D02*
X153936134Y-81811048D01*
%TO.C,C303*%
X190181039Y-52964413D02*
X190617250Y-52676785D01*
X190956996Y-54141215D02*
X191393208Y-53853586D01*
%TO.C,R502*%
X153492379Y-87799369D02*
X153195567Y-87719839D01*
X153689081Y-87065265D02*
X153392269Y-86985735D01*
%TO.C,D502*%
X171055948Y-78073024D02*
X170112773Y-79606132D01*
X171055948Y-78073024D02*
X171475137Y-77391642D01*
X173713336Y-79707860D02*
X173294147Y-80389242D01*
X173713336Y-79707860D02*
X174132525Y-79026478D01*
%TO.C,F301*%
X180416892Y-53931141D02*
X180020743Y-54192353D01*
X179841639Y-53058725D02*
X179445490Y-53319937D01*
%TO.C,C311*%
X173168578Y-65440392D02*
X172880950Y-65004181D01*
X174345380Y-64664435D02*
X174057751Y-64228223D01*
%TO.C,R302*%
X186079340Y-47081738D02*
X186248493Y-47338272D01*
X185444855Y-47500104D02*
X185614008Y-47756638D01*
%TO.C,R208*%
X188238365Y-43182991D02*
X187981831Y-43352144D01*
X187819999Y-42548506D02*
X187563465Y-42717659D01*
%TO.C,C203*%
X149735443Y-96398003D02*
X149679623Y-96606326D01*
X149039977Y-96211654D02*
X148984157Y-96419977D01*
%TO.C,R316*%
X179139162Y-46665754D02*
X178970009Y-46409220D01*
X179773647Y-46247388D02*
X179604494Y-45990854D01*
%TO.C,R318*%
X175677766Y-49409292D02*
X175508613Y-49152758D01*
X176312251Y-48990926D02*
X176143098Y-48734392D01*
%TO.C,R312*%
X177347793Y-71879288D02*
X177508804Y-71617567D01*
X177995106Y-72277517D02*
X178156117Y-72015796D01*
%TO.C,R504*%
X164932985Y-97622096D02*
X164932985Y-97314814D01*
X165692985Y-97622096D02*
X165692985Y-97314814D01*
%TO.C,U305*%
X171275633Y-68135246D02*
X170764747Y-68965680D01*
X168507521Y-66432292D02*
X168699159Y-66550188D01*
X168507521Y-66432292D02*
X167996635Y-67262725D01*
X170083565Y-70072925D02*
X169572679Y-70903358D01*
X167315453Y-68369970D02*
X166804567Y-69200404D01*
X169381041Y-70785462D02*
X169572679Y-70903358D01*
X166996205Y-69318301D02*
X166804567Y-69200404D01*
%TO.C,C318*%
X173610603Y-70208280D02*
X173497594Y-70391974D01*
X172997360Y-69831010D02*
X172884351Y-70014704D01*
%TO.C,Q304*%
X176697210Y-74359297D02*
X176225622Y-75125851D01*
X176225622Y-75125851D02*
X175544241Y-74706662D01*
X174181478Y-73868285D02*
X173500096Y-73449096D01*
X173500096Y-73449096D02*
X173604893Y-73278751D01*
%TO.C,U301*%
X160262989Y-99203456D02*
X162062989Y-99203456D01*
X160262989Y-99203456D02*
X159462989Y-99203456D01*
X160262989Y-96083456D02*
X161062989Y-96083456D01*
X160262989Y-96083456D02*
X159462989Y-96083456D01*
%TO.C,C403*%
X155486366Y-100353457D02*
X155270694Y-100353457D01*
X155486366Y-99633457D02*
X155270694Y-99633457D01*
D12*
%TO.C,U401*%
X160862989Y-104444321D02*
X160912989Y-104444321D01*
X160862989Y-104444321D02*
X160862989Y-103884321D01*
X165362989Y-104444321D02*
X165312989Y-104444321D01*
X165362989Y-104444321D02*
X165362989Y-103884321D01*
X160862989Y-100944321D02*
X160862989Y-101504321D01*
X160862989Y-100944321D02*
X160912989Y-100944321D01*
X165362989Y-100944321D02*
X165362989Y-101504321D01*
X165362989Y-100944321D02*
X165312989Y-100944321D01*
D14*
X160712989Y-104694321D02*
G75*
G02*
X160512989Y-104694321I-100000J0D01*
G01*
X160512989Y-104694321D02*
G75*
G02*
X160712989Y-104694321I100000J0D01*
G01*
D12*
%TO.C,U403*%
X150037986Y-104443457D02*
X150087986Y-104443457D01*
X150037986Y-104443457D02*
X150037986Y-103883457D01*
X154537986Y-104443457D02*
X154487986Y-104443457D01*
X154537986Y-104443457D02*
X154537986Y-103883457D01*
X150037986Y-100943457D02*
X150037986Y-101503457D01*
X150037986Y-100943457D02*
X150087986Y-100943457D01*
X154537986Y-100943457D02*
X154537986Y-101503457D01*
X154537986Y-100943457D02*
X154487986Y-100943457D01*
D14*
X149887986Y-104693457D02*
G75*
G02*
X149687986Y-104693457I-100000J0D01*
G01*
X149687986Y-104693457D02*
G75*
G02*
X149887986Y-104693457I100000J0D01*
G01*
D11*
%TO.C,C415*%
X160577982Y-106931296D02*
X160577982Y-106715624D01*
X161297982Y-106931296D02*
X161297982Y-106715624D01*
%TO.C,R308*%
X183109470Y-49408079D02*
X182940317Y-49151545D01*
X183743955Y-48989713D02*
X183574802Y-48733179D01*
%TO.C,C313*%
X171498881Y-66541350D02*
X171211253Y-66105139D01*
X172675683Y-65765393D02*
X172388054Y-65329181D01*
%TO.C,R207*%
X190637049Y-46877197D02*
X190380515Y-47046350D01*
X190218683Y-46242712D02*
X189962149Y-46411865D01*
%TO.C,C503*%
X159280621Y-79665623D02*
X159496293Y-79665623D01*
X159280621Y-80385623D02*
X159496293Y-80385623D01*
D10*
%TO.C,LED201*%
X186617253Y-38196921D02*
G75*
G02*
X186672301Y-38280405I27524J-41742D01*
G01*
X186672301Y-38280406D02*
G75*
G02*
X186617253Y-38196920I-27524J41743D01*
G01*
D11*
%TO.C,D303*%
X164209838Y-68751103D02*
X164570153Y-68737954D01*
X163266663Y-70284212D02*
X164209838Y-68751103D01*
X163266663Y-70284212D02*
X166503226Y-72275358D01*
X164570153Y-68737954D02*
X167551198Y-70571904D01*
X164884945Y-71279785D02*
X165932916Y-69576331D01*
%TO.C,C406*%
X151422985Y-106735620D02*
X151422985Y-106951292D01*
X150702985Y-106735620D02*
X150702985Y-106951292D01*
%TO.C,R505*%
X165932987Y-97620335D02*
X165932987Y-97313053D01*
X166692987Y-97620335D02*
X166692987Y-97313053D01*
%TO.C,C316*%
X172293724Y-72234331D02*
X172406733Y-72050637D01*
X172906967Y-72611601D02*
X173019976Y-72427907D01*
%TO.C,U304*%
X175790795Y-64694768D02*
X175254077Y-63880791D01*
X178504051Y-62905706D02*
X178316210Y-63029564D01*
X178504051Y-62905706D02*
X177967332Y-62091729D01*
X174538452Y-62795489D02*
X174001733Y-61981512D01*
X177251707Y-61006427D02*
X176714989Y-60192450D01*
X174189574Y-61857654D02*
X174001733Y-61981512D01*
X176527148Y-60316308D02*
X176714989Y-60192450D01*
%TO.C,C305*%
X185947312Y-59497759D02*
X186066035Y-59677813D01*
X185346221Y-59894105D02*
X185464944Y-60074159D01*
%TO.C,C502*%
X154233978Y-94061628D02*
X154018306Y-94061628D01*
X154233978Y-93341628D02*
X154018306Y-93341628D01*
%TO.C,C416*%
X160077978Y-108931296D02*
X160077978Y-108715624D01*
X160797978Y-108931296D02*
X160797978Y-108715624D01*
%TO.C,C410*%
X158077990Y-108931289D02*
X158077990Y-108715617D01*
X158797990Y-108931289D02*
X158797990Y-108715617D01*
%TO.C,C411*%
X162077984Y-108931298D02*
X162077984Y-108715626D01*
X162797984Y-108931298D02*
X162797984Y-108715626D01*
%TO.C,C319*%
X162169159Y-71037919D02*
X161895374Y-71482949D01*
X160968565Y-70299308D02*
X160694780Y-70744339D01*
%TO.C,C309*%
X181153782Y-52045593D02*
X180866154Y-51609382D01*
X182330584Y-51269636D02*
X182042955Y-50833424D01*
%TO.C,R305*%
X160332986Y-95097097D02*
X160332986Y-94789815D01*
X161092986Y-95097097D02*
X161092986Y-94789815D01*
%TO.C,R320*%
X159701296Y-65421766D02*
X159862307Y-65160045D01*
X160348609Y-65819995D02*
X160509620Y-65558274D01*
%TO.C,R311*%
X175966067Y-70729661D02*
X176227788Y-70890672D01*
X175567838Y-71376974D02*
X175829559Y-71537985D01*
%TO.C,C504*%
X154366145Y-81984463D02*
X154366145Y-81768791D01*
X155086145Y-81984463D02*
X155086145Y-81768791D01*
%TO.C,C405*%
X155436139Y-105793797D02*
X155436139Y-106009469D01*
X154716139Y-105793797D02*
X154716139Y-106009469D01*
%TO.C,L301*%
X178957421Y-63475192D02*
X176118938Y-65346827D01*
X179287710Y-63976101D02*
X178957421Y-63475192D01*
X176449227Y-65847736D02*
X176118938Y-65346827D01*
X180498767Y-65812766D02*
X180829056Y-66313675D01*
X177660284Y-67684401D02*
X177990573Y-68185310D01*
X177990573Y-68185310D02*
X180829056Y-66313675D01*
%TO.C,C417*%
X159577985Y-106931290D02*
X159577985Y-106715618D01*
X160297985Y-106931290D02*
X160297985Y-106715618D01*
%TO.C,C315*%
X171442000Y-71710349D02*
X171555009Y-71526655D01*
X172055243Y-72087619D02*
X172168252Y-71903925D01*
%TO.C,C314*%
X182260889Y-54779699D02*
X182548517Y-55215910D01*
X181084087Y-55555656D02*
X181371716Y-55991868D01*
%TO.C,L303*%
X169728127Y-74855814D02*
X168313365Y-77155477D01*
X163425347Y-70978318D02*
X169728127Y-74855814D01*
X162010585Y-73277981D02*
X163425347Y-70978318D01*
X167265393Y-78858931D02*
X165850631Y-81158594D01*
X160962613Y-74981435D02*
X159547851Y-77281098D01*
X159547851Y-77281098D02*
X165850631Y-81158594D01*
D10*
%TO.C,U502*%
X155576141Y-92776629D02*
X155576141Y-92276629D01*
X155576141Y-89276629D02*
X155576141Y-88776629D01*
X155576141Y-88776629D02*
X155076141Y-88776629D01*
X155076141Y-92776629D02*
X155576141Y-92776629D01*
X153076141Y-92776629D02*
X152576141Y-92776629D01*
X153076141Y-88776629D02*
X152576141Y-88776629D01*
X152576141Y-92776629D02*
X152576141Y-92276629D01*
X152576141Y-88776629D02*
X152576141Y-89276629D01*
D11*
%TO.C,D302*%
X181684690Y-46929393D02*
X181434236Y-47094537D01*
X181434236Y-47094537D02*
X181158995Y-46677113D01*
X180388322Y-45508326D02*
X180113082Y-45090902D01*
X180113082Y-45090902D02*
X180363536Y-44925758D01*
%TO.C,R310*%
X175787014Y-68580596D02*
X175626003Y-68842317D01*
X175139701Y-68182367D02*
X174978690Y-68444088D01*
%TO.C,C201*%
X149439889Y-97618605D02*
X149648212Y-97674425D01*
X149253540Y-98314071D02*
X149461863Y-98369891D01*
%TO.C,R323*%
X184779157Y-48307122D02*
X184610004Y-48050588D01*
X185413642Y-47888756D02*
X185244489Y-47632222D01*
%TO.C,Q302*%
X156112984Y-97543460D02*
X156112984Y-98443460D01*
X156112984Y-98443460D02*
X155312984Y-98443460D01*
X153712984Y-98443460D02*
X152912984Y-98443460D01*
X152912984Y-98443460D02*
X152912984Y-98243460D01*
D12*
%TO.C,SW501*%
X181645686Y-41660415D02*
X181409048Y-41884192D01*
X181247175Y-41239002D02*
X181645686Y-41660415D01*
X178891335Y-40741694D02*
X177612563Y-41950968D01*
X178612963Y-44528318D02*
X178376100Y-44752309D01*
X178376100Y-44752309D02*
X177977589Y-44330895D01*
D14*
X181734927Y-43078841D02*
G75*
G02*
X181534927Y-43078841I-100000J0D01*
G01*
X181534927Y-43078841D02*
G75*
G02*
X181734927Y-43078841I100000J0D01*
G01*
D11*
%TO.C,Q303*%
X176009389Y-70394745D02*
X177269945Y-71170244D01*
X178632308Y-68955754D02*
X176758509Y-67802985D01*
X178632308Y-68955754D02*
X178317917Y-69466790D01*
X177584336Y-70659208D02*
X177269945Y-71170244D01*
%TO.C,D202*%
X192419493Y-51619701D02*
X192087380Y-51479343D01*
X193922220Y-50628836D02*
X192419493Y-51619701D01*
X193922220Y-50628836D02*
X191830393Y-47456414D01*
X192087380Y-51479343D02*
X190160697Y-48557376D01*
X192876306Y-49042625D02*
X191206611Y-50143587D01*
%TD*%
M02*
